<svg width="821" height="209" viewBox="0 0 821 209" fill="none" xmlns="http://www.w3.org/2000/svg">
<path d="M819.925 77.0762V149.2H798.463V77.0762H819.925Z" fill="#417505"/>
<circle cx="809.156" cy="59.7002" r="11.5" fill="#F5A623"/>
<circle cx="812.656" cy="55.2002" r="6" fill="#FFBE53"/>
<path d="M766.173 57.0742V126.132C766.173 128.76 766.757 130.658 767.925 131.826C769.191 132.897 771.235 133.432 774.057 133.432H783.401L785.737 148.032C783.985 148.616 781.844 149.103 779.313 149.492C776.783 149.979 774.252 150.32 771.721 150.514C769.191 150.806 767.049 150.952 765.297 150.952C758.776 150.952 753.666 149.2 749.967 145.696C746.366 142.192 744.565 137.277 744.565 130.95L744.419 57.0742H766.173ZM786.321 77.0762V91.2382H731.863V77.8062L745.879 77.0762H786.321Z" fill="#417505"/>
<path d="M689.75 75.1782C701.916 75.1782 710.628 77.2709 715.884 81.4562C721.237 85.5442 723.914 91.6762 723.914 99.8522C724.011 106.471 722.356 111.435 718.95 114.744C715.543 117.956 709.654 119.562 701.284 119.562H660.988V107.444H695.298C698.607 107.444 700.7 106.763 701.576 105.4C702.549 103.94 703.036 101.945 703.036 99.4142C702.938 96.0076 701.916 93.6716 699.97 92.4062C698.12 91.0436 694.957 90.3622 690.48 90.3622C686.489 90.3622 683.374 90.8976 681.136 91.9682C678.897 93.0389 677.34 95.0829 676.464 98.1002C675.588 101.118 675.15 105.498 675.15 111.24C675.15 117.275 675.685 121.947 676.756 125.256C677.826 128.468 679.627 130.707 682.158 131.972C684.786 133.238 688.387 133.87 692.962 133.87C696.271 133.87 700.359 133.773 705.226 133.578C710.19 133.286 715.154 132.848 720.118 132.264L722.162 145.55C719.339 146.913 716.127 147.984 712.526 148.762C708.924 149.541 705.226 150.076 701.43 150.368C697.634 150.758 693.984 150.952 690.48 150.952C681.33 150.952 673.933 149.638 668.288 147.01C662.74 144.285 658.7 140.148 656.17 134.6C653.736 129.052 652.52 121.947 652.52 113.284C652.52 103.843 653.785 96.3482 656.316 90.8002C658.846 85.2522 662.837 81.2616 668.288 78.8282C673.738 76.3949 680.892 75.1782 689.75 75.1782Z" fill="#417505"/>
<path d="M618.124 75.178C631.751 75.178 638.564 81.8453 638.564 95.18V149.2H616.81V101.896C616.81 98.684 616.226 96.494 615.058 95.326C613.988 94.0607 612.041 93.428 609.218 93.428C606.104 93.428 602.892 94.012 599.582 95.18C596.273 96.348 592.185 98.246 587.318 100.874L585.42 89.632C590.774 84.96 596.224 81.4073 601.772 78.974C607.32 76.4433 612.771 75.178 618.124 75.178ZM589.508 47L589.654 71.966C589.654 75.762 589.411 79.3633 588.924 82.77C588.535 86.1767 588.048 89.048 587.464 91.384L589.508 93.282V149.2H567.9V47H589.508Z" fill="#417505"/>
<path d="M556.69 48.46L530.41 89.048C529.339 90.8 528.171 92.3086 526.906 93.574C525.641 94.8393 524.375 95.91 523.11 96.786V97.224C524.473 98.0026 525.933 99.1706 527.49 100.728C529.047 102.285 530.313 103.94 531.286 105.692L558.442 149.2H533.476L502.378 96.494L532.6 48.46H556.69ZM499.02 48.46V76.93C499.02 80.2393 498.777 83.5486 498.29 86.858C497.803 90.07 497.025 93.2333 495.954 96.348C496.733 99.3653 497.414 102.48 497.998 105.692C498.679 108.807 499.02 111.727 499.02 114.452V149.2H476.828V48.46H499.02ZM510.408 89.048V104.524H492.304V89.048H510.408Z" fill="#417505"/>
<path d="M465.234 77.0762L439.392 150.076C438.224 153.678 436.569 157.279 434.428 160.88C432.384 164.579 429.756 167.888 426.544 170.808C423.429 173.728 419.633 175.918 415.156 177.378C410.776 178.935 405.568 179.325 399.534 178.546L397.928 166.282C403.865 164.725 408.488 162.632 411.798 160.004C415.107 157.376 417.686 153.921 419.536 149.638L424.062 139.564C424.938 137.423 425.765 134.844 426.544 131.826C427.42 128.712 428.15 126.035 428.734 123.796L442.166 77.0762H465.234ZM408.002 77.0762L421.726 123.796C422.115 125.646 422.504 127.495 422.894 129.344C423.283 131.194 423.624 133.043 423.916 134.892H427.858L420.996 149.2H415.74C414.085 149.2 412.625 148.713 411.36 147.74C410.094 146.767 409.218 145.502 408.732 143.944L384.934 77.0762H408.002Z" fill="#F5A623"/>
<path d="M352.614 91.9682L377.434 92.1142L337.576 134.454L312.756 134.308L352.614 91.9682ZM378.164 134.308V149.2H312.756V134.308H378.164ZM377.434 77.0762V92.1142H313.34V77.0762H377.434Z" fill="#F5A623"/>
<path d="M253.462 48.022C258.913 48.022 264.412 48.0706 269.96 48.168C275.508 48.168 280.959 48.2653 286.312 48.46C291.665 48.6546 296.678 48.9953 301.35 49.482L300.328 65.688H261.638C259.205 65.688 257.355 66.3206 256.09 67.586C254.922 68.8513 254.338 70.7006 254.338 73.134V124.526C254.338 126.959 254.922 128.809 256.09 130.074C257.355 131.339 259.205 131.972 261.638 131.972H300.328L301.35 148.178C296.678 148.567 291.665 148.908 286.312 149.2C280.959 149.395 275.508 149.492 269.96 149.492C264.412 149.589 258.913 149.638 253.462 149.638C247.038 149.638 241.831 147.789 237.84 144.09C233.947 140.294 232 135.379 232 129.344V68.316C232 62.184 233.947 57.2686 237.84 53.57C241.831 49.8713 247.038 48.022 253.462 48.022ZM234.628 88.902H294.926V104.67H234.628V88.902Z" fill="#F5A623"/>
<path d="M149.818 0C157.754 10.7254 169.174 35.2582 148.207 41.891C146.226 50.531 144.287 58.7594 142.451 66.4608C144.186 62.837 147.105 59.4731 152.33 58.6864C158.113 57.6965 165.381 56.5672 167.659 51.311C167.043 61.0607 160.754 79.1715 140.571 74.3171C139.945 76.9243 139.335 79.46 138.742 81.9179C138.459 83.0913 138.18 84.2471 137.905 85.3846C139.536 82.0465 142.93 78.7754 150.349 77.621C158.303 76.278 168.32 74.6879 170.425 70.0124C171.623 78.4394 166.48 94.6035 136.349 91.8978C141.599 87.1864 154.448 88.7307 161.678 78.3194C152.061 86.8994 140.966 86.1363 136.348 91.8422C135.321 96.1052 134.37 100.058 133.519 103.665C135.481 99.5702 139.287 95.5502 147.359 94.8495C155.458 94.0226 165.644 93.1001 168.364 87.755C168.433 97.8231 161.227 116.38 131.926 110.521L131.591 111.997C129.827 119.834 127.358 128.258 126.001 140.985C124.72 152.997 124.432 168.846 126.705 191.569C127.916 172.239 133.191 135.531 151.586 119.375C176.928 97.1188 206.144 94.645 216 80.8673C198.401 114.076 202.976 135.273 145.25 163.888C134.338 169.298 127.511 181.836 126.947 199.924C126.878 202.151 126.774 203.406 126.678 203.835C126.681 210.347 126.145 211.296 125.894 203.229C125.098 177.658 115.444 159.933 100.018 152.286C18.4116 111.832 24.88 81.8659 0 34.9194C13.9331 54.397 55.2342 57.8935 91.0615 89.3577C110.434 106.371 119.513 139.509 123.592 166.603C123.349 156.304 123.761 147.912 124.517 140.825C125.886 127.985 128.389 119.427 130.135 111.667L130.823 108.645C132.508 101.328 134.734 92.1587 137.291 81.5648C137.934 78.9007 138.597 76.1459 139.279 73.3075C118.292 70.6833 118.97 51.3193 121.94 41.9476C122.162 47.6752 128.526 51.3745 133.557 54.4032C140.93 58.6421 140.335 66.9211 139.604 71.9555C141.848 62.6024 144.274 52.3662 146.77 41.4784C146.269 39.2682 144.99 35.8688 143.482 31.4965C140.786 23.6782 143.926 17.6125 146.011 14.2924C147.896 10.6529 150.924 3.52595 149.818 0ZM186.785 116.549C169.89 127.853 154.636 137.628 144.546 146.578C133.987 155.944 128.824 175.429 128.003 184.732C130.819 169.188 138.211 157.883 142.082 153.643C145.955 149.403 172.94 127.029 186.785 116.549ZM41.3011 85.3622C60.8736 100.179 99.0232 131.81 104.497 137.803C109.933 143.755 120.275 159.559 124.316 181.301C124.289 180.923 124.263 180.547 124.237 180.174C122.664 166.504 115.367 140.546 101.014 127.814C86.749 115.162 65.186 101.344 41.3011 85.3622ZM160.587 98.0753C149.807 105.244 137.137 105.264 132.172 110.032C137.862 106.01 152.571 106.487 160.587 98.0753ZM104.686 74.4615C105.206 80.4404 114.302 85.1355 121.498 88.9558C132.973 94.8269 131.315 104.408 130.425 109.283C127.827 102.856 117.623 100.379 111.371 89.9234C114.961 101.364 126.974 103.631 130.412 109.357C130.41 109.369 130.407 109.38 130.405 109.392C100.583 103.897 100.833 83.8157 104.686 74.4615ZM110.781 57.8085C111.118 62.9282 119.944 67.9438 126.923 72.0014C138.141 78.3314 136.116 86.3214 135.103 90.3165C105.88 82.2497 106.712 65.2834 110.781 57.8085ZM117.685 72.2833C121.081 81.9985 131.946 84.1393 134.925 89.1138C132.692 83.5331 123.459 81.264 117.685 72.2833ZM161.833 60.2325C154.159 67.8119 144.229 68.7138 140.757 73.5484C140.754 73.5618 140.75 73.5751 140.747 73.5884C144.865 69.3933 156.456 68.8387 161.833 60.2325ZM125.317 53.7155C127.003 63.6914 137.028 67.6768 139.367 72.9437C139.375 72.9109 139.382 72.878 139.39 72.8451C137.846 67.1769 129.41 63.3328 125.317 53.7155ZM170.828 30.9181C170.001 40.8995 163.762 59.6018 145.418 54.5651C146.463 49.7769 148.553 40.2018 156.867 38.6456C162.086 37.5485 168.639 36.2848 170.828 30.9181ZM130.994 21.7976C130.63 27.585 135.977 31.5926 140.196 34.8657C146.999 39.9071 144.717 49.438 143.575 54.2042C124.88 50.7011 127.398 31.1404 130.994 21.7976ZM165.738 39.9488C158.715 47.9826 149.249 48.8686 146.226 54.0608C149.898 49.5781 160.959 49.0591 165.738 39.9488ZM131.911 32.512C138.875 40.5978 138.449 50.1302 143.157 53.8491C139.238 49.5822 140.246 38.5139 131.911 32.512ZM152.263 11.842C154.642 22.36 150.515 33.8057 148.153 39.7664C148.231 39.8118 148.299 39.8697 148.355 39.9381C153.765 32.7431 153.935 18.3525 152.263 11.842Z" fill="url(#paint0_linear_1053_2830)"/>
<defs>
<linearGradient id="paint0_linear_1053_2830" x1="108" y1="0" x2="108" y2="209" gradientUnits="userSpaceOnUse">
<stop stop-color="#417505"/>
<stop offset="1" stop-color="#2B4E02"/>
</linearGradient>
</defs>
</svg>
