<svg width="842" height="234" viewBox="0 0 842 234" fill="none" xmlns="http://www.w3.org/2000/svg">
<path d="M840.925 73.8765V146H819.463V73.8765H840.925Z" fill="#417505"/>
<circle cx="830.156" cy="56.5005" r="11.5" fill="#F5A623"/>
<circle cx="833.656" cy="52.0005" r="6" fill="#FFBE53"/>
<path d="M787.173 53.8745V122.933C787.173 125.561 787.757 127.459 788.925 128.627C790.191 129.697 792.235 130.233 795.057 130.233H804.401L806.737 144.833C804.985 145.417 802.844 145.903 800.313 146.293C797.783 146.779 795.252 147.12 792.721 147.315C790.191 147.607 788.049 147.753 786.297 147.753C779.776 147.753 774.666 146.001 770.967 142.497C767.366 138.993 765.565 134.077 765.565 127.751L765.419 53.8745H787.173ZM807.321 73.8765V88.0385H752.863V74.6065L766.879 73.8765H807.321Z" fill="#417505"/>
<path d="M710.75 71.9785C722.916 71.9785 731.628 74.0712 736.884 78.2565C742.237 82.3445 744.914 88.4765 744.914 96.6525C745.011 103.271 743.356 108.235 739.95 111.545C736.543 114.757 730.654 116.363 722.284 116.363H681.988V104.245H716.298C719.607 104.245 721.7 103.563 722.576 102.201C723.549 100.741 724.036 98.7452 724.036 96.2145C723.938 92.8078 722.916 90.4718 720.97 89.2065C719.12 87.8438 715.957 87.1625 711.48 87.1625C707.489 87.1625 704.374 87.6978 702.136 88.7685C699.897 89.8392 698.34 91.8832 697.464 94.9005C696.588 97.9178 696.15 102.298 696.15 108.041C696.15 114.075 696.685 118.747 697.756 122.057C698.826 125.269 700.627 127.507 703.158 128.773C705.786 130.038 709.387 130.671 713.962 130.671C717.271 130.671 721.359 130.573 726.226 130.379C731.19 130.087 736.154 129.649 741.118 129.065L743.162 142.351C740.339 143.713 737.127 144.784 733.526 145.563C729.924 146.341 726.226 146.877 722.43 147.169C718.634 147.558 714.984 147.753 711.48 147.753C702.33 147.753 694.933 146.439 689.288 143.811C683.74 141.085 679.7 136.949 677.17 131.401C674.736 125.853 673.52 118.747 673.52 110.085C673.52 100.643 674.785 93.1485 677.316 87.6005C679.846 82.0525 683.837 78.0619 689.288 75.6285C694.738 73.1952 701.892 71.9785 710.75 71.9785Z" fill="#417505"/>
<path d="M639.124 71.9783C652.751 71.9783 659.564 78.6456 659.564 91.9803V146H637.81V98.6963C637.81 95.4843 637.226 93.2943 636.058 92.1263C634.988 90.861 633.041 90.2283 630.218 90.2283C627.104 90.2283 623.892 90.8123 620.582 91.9803C617.273 93.1483 613.185 95.0463 608.318 97.6743L606.42 86.4323C611.774 81.7603 617.224 78.2076 622.772 75.7743C628.32 73.2436 633.771 71.9783 639.124 71.9783ZM610.508 43.8003L610.654 68.7663C610.654 72.5623 610.411 76.1636 609.924 79.5703C609.535 82.977 609.048 85.8483 608.464 88.1843L610.508 90.0823V146H588.9V43.8003H610.508Z" fill="#417505"/>
<path d="M577.69 45.2603L551.41 85.8483C550.339 87.6003 549.171 89.1089 547.906 90.3743C546.641 91.6396 545.375 92.7103 544.11 93.5863V94.0243C545.473 94.8029 546.933 95.9709 548.49 97.5283C550.047 99.0856 551.313 100.74 552.286 102.492L579.442 146H554.476L523.378 93.2943L553.6 45.2603H577.69ZM520.02 45.2603V73.7303C520.02 77.0396 519.777 80.3489 519.29 83.6583C518.803 86.8703 518.025 90.0336 516.954 93.1483C517.733 96.1656 518.414 99.2803 518.998 102.492C519.679 105.607 520.02 108.527 520.02 111.252V146H497.828V45.2603H520.02ZM531.408 85.8483V101.324H513.304V85.8483H531.408Z" fill="#417505"/>
<path d="M486.234 73.8765L460.392 146.876C459.224 150.478 457.569 154.079 455.428 157.68C453.384 161.379 450.756 164.688 447.544 167.608C444.429 170.528 440.633 172.718 436.156 174.178C431.776 175.736 426.568 176.125 420.534 175.346L418.928 163.082C424.865 161.525 429.488 159.432 432.798 156.804C436.107 154.176 438.686 150.721 440.536 146.438L445.062 136.364C445.938 134.223 446.765 131.644 447.544 128.626C448.42 125.512 449.15 122.835 449.734 120.596L463.166 73.8765H486.234ZM429.002 73.8765L442.726 120.596C443.115 122.446 443.504 124.295 443.894 126.144C444.283 127.994 444.624 129.843 444.916 131.692H448.858L441.996 146H436.74C435.085 146 433.625 145.514 432.36 144.54C431.094 143.567 430.218 142.302 429.732 140.744L405.934 73.8765H429.002Z" fill="#F5A623"/>
<path d="M373.614 88.7685L398.434 88.9145L358.576 131.254L333.756 131.108L373.614 88.7685ZM399.164 131.108V146H333.756V131.108H399.164ZM398.434 73.8765V88.9145H334.34V73.8765H398.434Z" fill="#F5A623"/>
<path d="M274.462 44.8223C279.913 44.8223 285.412 44.8709 290.96 44.9683C296.508 44.9683 301.959 45.0656 307.312 45.2603C312.665 45.4549 317.678 45.7956 322.35 46.2823L321.328 62.4883H282.638C280.205 62.4883 278.355 63.1209 277.09 64.3863C275.922 65.6516 275.338 67.5009 275.338 69.9343V121.326C275.338 123.76 275.922 125.609 277.09 126.874C278.355 128.14 280.205 128.772 282.638 128.772H321.328L322.35 144.978C317.678 145.368 312.665 145.708 307.312 146C301.959 146.195 296.508 146.292 290.96 146.292C285.412 146.39 279.913 146.438 274.462 146.438C268.038 146.438 262.831 144.589 258.84 140.89C254.947 137.094 253 132.179 253 126.144V65.1163C253 58.9843 254.947 54.0689 258.84 50.3703C262.831 46.6716 268.038 44.8223 274.462 44.8223ZM255.628 85.7023H315.926V101.47H255.628V85.7023Z" fill="#F5A623"/>
<path d="M167.158 0C176.013 11.957 188.754 39.307 165.361 46.7014C163.151 56.3336 160.987 65.5069 158.938 74.0926C160.874 70.0528 164.131 66.3026 169.961 65.4255C176.414 64.3219 184.522 63.063 187.063 57.2031C186.376 68.0724 179.36 88.263 156.841 82.8511C156.142 85.7577 155.462 88.5846 154.8 91.3247C154.484 92.6329 154.173 93.9214 153.867 95.1896C155.686 91.4681 159.473 87.8214 167.751 86.5344C176.625 85.0372 187.802 83.2645 190.151 78.0521C191.487 87.4468 185.749 105.467 152.131 102.451C157.988 97.1983 172.324 98.9199 180.39 87.313C169.661 96.8782 157.281 96.0276 152.129 102.389C150.983 107.141 149.923 111.548 148.973 115.569C151.162 111.004 155.408 106.522 164.414 105.741C173.451 104.819 184.816 103.791 187.851 97.8321C187.928 109.056 179.887 129.744 147.196 123.213L146.821 124.858C144.854 133.595 142.099 142.986 140.584 157.174C139.155 170.566 138.834 188.235 141.37 213.567C142.721 192.017 148.607 151.094 169.13 133.084C197.406 108.271 230.003 105.513 241 90.1535C221.364 127.175 226.468 150.806 162.061 182.708C149.887 188.738 142.269 202.717 141.64 222.881C141.563 225.365 141.447 226.764 141.34 227.242C141.343 234.502 140.745 235.56 140.465 226.566C139.577 198.059 128.806 178.299 111.595 169.774C20.5425 124.674 27.7596 91.2668 0 38.9293C15.5458 60.6436 61.6271 64.5416 101.601 99.6188C123.215 118.586 133.346 155.529 137.897 185.735C137.626 174.253 138.085 164.897 138.928 156.996C140.456 142.682 143.249 133.141 145.197 124.49L145.965 121.121C147.844 112.964 150.328 102.742 153.181 90.931C153.899 87.9611 154.638 84.8899 155.399 81.7256C131.983 78.8 132.739 57.2124 136.054 46.7645C136.301 53.1499 143.401 57.2739 149.015 60.6504C157.241 65.3761 156.577 74.6058 155.762 80.2184C158.266 69.7912 160.972 58.3796 163.757 46.2414C163.198 43.7775 161.771 39.9877 160.089 35.1133C157.081 26.3972 160.584 19.6349 162.91 15.9336C165.013 11.8762 168.393 3.93085 167.158 0ZM208.404 129.932C189.553 142.535 172.534 153.432 161.276 163.41C149.495 173.852 143.734 195.574 142.818 205.945C145.96 188.616 154.207 176.013 158.527 171.286C162.848 166.56 192.957 141.616 208.404 129.932ZM46.0814 95.1646C67.9192 111.683 110.484 146.946 116.591 153.627C122.657 160.263 134.196 177.882 138.705 202.121C138.674 201.699 138.645 201.28 138.616 200.863C136.862 185.624 128.72 156.685 112.705 142.491C96.7894 128.386 72.7307 112.982 46.0814 95.1646ZM179.174 109.338C167.146 117.33 153.009 117.352 147.47 122.667C153.818 118.183 170.23 118.715 179.174 109.338ZM116.803 83.0121C117.383 89.6776 127.531 94.9118 135.56 99.1708C148.363 105.716 146.513 116.398 145.52 121.833C142.621 114.667 131.237 111.905 124.261 100.25C128.267 113.004 141.67 115.531 145.506 121.915C145.504 121.928 145.501 121.941 145.499 121.953C112.224 115.827 112.504 93.4405 116.803 83.0121ZM123.603 64.4468C123.979 70.1544 133.827 75.7459 141.613 80.2695C154.129 87.3264 151.87 96.2339 150.74 100.688C118.135 91.6947 119.063 72.7801 123.603 64.4468ZM131.306 80.5838C135.095 91.4146 147.218 93.8013 150.541 99.347C148.05 93.1254 137.748 90.5958 131.306 80.5838ZM180.564 67.1491C172.001 75.5989 160.922 76.6044 157.048 81.9942C157.045 82.0091 157.041 82.0239 157.037 82.0388C161.631 77.3619 174.565 76.7437 180.564 67.1491ZM139.821 59.8837C141.703 71.0053 152.888 75.4483 155.497 81.32C155.506 81.2834 155.515 81.2467 155.523 81.2101C153.8 74.891 144.388 70.6055 139.821 59.8837ZM190.6 34.4685C189.677 45.5961 182.715 66.4461 162.249 60.8309C163.415 55.4929 165.747 44.8183 175.023 43.0834C180.845 41.8603 188.158 40.4515 190.6 34.4685ZM146.156 24.3006C145.749 30.7526 151.716 35.2205 156.422 38.8695C164.013 44.4897 161.467 55.115 160.193 60.4286C139.334 56.5233 142.143 34.7163 146.156 24.3006ZM184.921 44.5363C177.084 53.4926 166.523 54.4803 163.15 60.2687C167.247 55.2713 179.589 54.6927 184.921 44.5363ZM147.178 36.2454C154.948 45.2598 154.473 55.8868 159.727 60.0327C155.353 55.2759 156.478 42.9366 147.178 36.2454ZM169.886 13.2019C172.54 24.9276 167.936 37.6877 165.3 44.3329C165.388 44.3835 165.463 44.448 165.526 44.5243C171.561 36.5031 171.752 20.46 169.886 13.2019Z" fill="url(#paint0_linear_937_178)"/>
<path fill-rule="evenodd" clip-rule="evenodd" d="M841 220H559V218H841V220Z" fill="#D41C32"/>
<path d="M537.424 232.865V205.57H541.428V209.721H541.721C542.225 208.37 543.129 207.279 544.431 206.449C545.749 205.603 547.222 205.18 548.85 205.18C549.159 205.18 549.541 205.188 549.997 205.204C550.453 205.204 550.803 205.212 551.047 205.229V209.477C550.9 209.444 550.575 209.395 550.07 209.33C549.566 209.265 549.029 209.232 548.459 209.232C547.141 209.232 545.961 209.509 544.919 210.062C543.877 210.616 543.055 211.373 542.453 212.333C541.867 213.293 541.574 214.392 541.574 215.629V232.865H537.424Z" fill="#D41C32"/>
<path d="M522.189 233.451C519.569 233.451 517.299 232.865 515.378 231.693C513.474 230.521 512.009 228.886 510.983 226.786C509.958 224.67 509.445 222.221 509.445 219.438C509.445 216.638 509.95 214.172 510.959 212.04C511.968 209.908 513.384 208.24 515.207 207.035C517.046 205.831 519.195 205.229 521.652 205.229C523.068 205.229 524.476 205.465 525.876 205.937C527.276 206.409 528.545 207.174 529.685 208.231C530.84 209.289 531.76 210.689 532.443 212.431C533.127 214.172 533.469 216.312 533.469 218.852V220.658H512.424V217.045H531.198L529.27 218.412C529.27 216.589 528.985 214.97 528.415 213.554C527.845 212.138 526.991 211.023 525.852 210.209C524.729 209.395 523.329 208.988 521.652 208.988C519.976 208.988 518.535 209.403 517.331 210.233C516.143 211.047 515.231 212.113 514.597 213.432C513.962 214.75 513.645 216.166 513.645 217.68V220.072C513.645 222.139 514.003 223.889 514.719 225.321C515.435 226.754 516.436 227.844 517.722 228.593C519.007 229.325 520.497 229.691 522.189 229.691C523.28 229.691 524.273 229.537 525.168 229.228C526.063 228.902 526.836 228.422 527.487 227.787C528.138 227.136 528.635 226.339 528.977 225.395L533.029 226.566C532.606 227.934 531.89 229.138 530.881 230.18C529.888 231.205 528.651 232.011 527.17 232.597C525.689 233.166 524.029 233.451 522.189 233.451Z" fill="#D41C32"/>
<path d="M507.053 205.57V209.135H492.941V205.57H507.053ZM497.043 199.076H501.193V225.053C501.193 226.469 501.486 227.51 502.072 228.178C502.658 228.829 503.586 229.154 504.855 229.154C505.132 229.154 505.417 229.138 505.71 229.105C506.019 229.073 506.353 229.024 506.711 228.959L507.59 232.719C507.199 232.865 506.719 232.979 506.149 233.061C505.596 233.158 505.035 233.207 504.465 233.207C502.268 233.207 500.477 232.556 499.094 231.254C497.727 229.952 497.043 228.259 497.043 226.176V199.076Z" fill="#D41C32"/>
<path d="M477.268 232.865V205.57H481.271V209.721H481.564C482.069 208.37 482.972 207.279 484.274 206.449C485.593 205.603 487.066 205.18 488.693 205.18C489.003 205.18 489.385 205.188 489.841 205.204C490.297 205.204 490.646 205.212 490.891 205.229V209.477C490.744 209.444 490.419 209.395 489.914 209.33C489.41 209.265 488.872 209.232 488.303 209.232C486.984 209.232 485.804 209.509 484.763 210.062C483.721 210.616 482.899 211.373 482.297 212.333C481.711 213.293 481.418 214.392 481.418 215.629V232.865H477.268Z" fill="#D41C32"/>
<path d="M459.396 233.5C457.671 233.5 456.101 233.174 454.685 232.523C453.269 231.856 452.146 230.896 451.315 229.643C450.485 228.389 450.07 226.876 450.07 225.102C450.07 223.539 450.38 222.278 450.998 221.317C451.617 220.341 452.438 219.576 453.464 219.022C454.506 218.453 455.645 218.03 456.882 217.753C458.135 217.476 459.396 217.257 460.666 217.094C462.326 216.882 463.669 216.719 464.694 216.605C465.736 216.492 466.493 216.296 466.965 216.02C467.453 215.743 467.697 215.271 467.697 214.604V214.457C467.697 212.715 467.217 211.365 466.257 210.404C465.313 209.428 463.872 208.939 461.936 208.939C459.95 208.939 458.387 209.379 457.248 210.258C456.109 211.12 455.311 212.048 454.855 213.041L450.852 211.625C451.568 209.965 452.52 208.671 453.708 207.743C454.912 206.815 456.215 206.164 457.614 205.79C459.03 205.416 460.422 205.229 461.789 205.229C462.668 205.229 463.677 205.334 464.816 205.546C465.956 205.741 467.062 206.164 468.137 206.815C469.227 207.45 470.122 208.419 470.822 209.721C471.538 211.007 471.896 212.732 471.896 214.896V232.865H467.697V229.154H467.502C467.225 229.74 466.753 230.375 466.086 231.059C465.419 231.726 464.532 232.304 463.425 232.792C462.334 233.264 460.992 233.5 459.396 233.5ZM460.031 229.74C461.691 229.74 463.091 229.415 464.23 228.764C465.37 228.113 466.232 227.274 466.818 226.249C467.404 225.207 467.697 224.125 467.697 223.002V219.145C467.518 219.356 467.128 219.551 466.525 219.73C465.939 219.893 465.256 220.04 464.475 220.17C463.71 220.3 462.961 220.414 462.229 220.512C461.496 220.593 460.91 220.658 460.471 220.707C459.38 220.854 458.363 221.09 457.419 221.415C456.475 221.724 455.71 222.188 455.124 222.807C454.554 223.425 454.27 224.271 454.27 225.346C454.27 226.794 454.807 227.893 455.881 228.642C456.971 229.374 458.355 229.74 460.031 229.74Z" fill="#D41C32"/>
<path d="M410.227 232.865V205.57H414.23V209.867H414.621C415.191 208.402 416.11 207.263 417.38 206.449C418.649 205.635 420.171 205.229 421.945 205.229C423.736 205.229 425.225 205.635 426.413 206.449C427.618 207.263 428.553 208.402 429.221 209.867H429.514C430.23 208.451 431.28 207.328 432.663 206.498C434.063 205.652 435.731 205.229 437.668 205.229C440.109 205.229 442.111 205.993 443.674 207.523C445.236 209.037 446.018 211.397 446.018 214.604V232.865H441.818V214.604C441.818 212.585 441.265 211.145 440.158 210.282C439.051 209.42 437.749 208.988 436.252 208.988C434.348 208.988 432.867 209.574 431.809 210.746C430.767 211.902 430.246 213.35 430.246 215.092V232.865H425.949V214.164C425.949 212.618 425.453 211.373 424.46 210.429C423.467 209.468 422.173 208.988 420.578 208.988C419.488 208.988 418.47 209.281 417.526 209.867C416.582 210.453 415.817 211.259 415.231 212.284C414.662 213.31 414.377 214.49 414.377 215.824V232.865H410.227Z" fill="#D41C32"/>
<path d="M392.746 233.5C390.142 233.5 387.888 233.085 385.983 232.255C384.079 231.409 382.582 230.237 381.491 228.739C380.417 227.226 379.807 225.476 379.66 223.49H384.201C384.331 224.857 384.795 225.989 385.593 226.884C386.407 227.779 387.44 228.446 388.693 228.886C389.947 229.325 391.298 229.545 392.746 229.545C394.423 229.545 395.928 229.268 397.263 228.715C398.614 228.161 399.68 227.388 400.461 226.396C401.242 225.403 401.633 224.239 401.633 222.904C401.633 221.7 401.291 220.723 400.607 219.975C399.924 219.226 399.029 218.616 397.922 218.144C396.831 217.672 395.643 217.257 394.357 216.898L389.914 215.629C387.066 214.815 384.812 213.651 383.151 212.138C381.507 210.608 380.686 208.614 380.686 206.156C380.686 204.122 381.231 202.348 382.321 200.834C383.428 199.304 384.917 198.116 386.789 197.27C388.677 196.423 390.777 196 393.088 196C395.432 196 397.515 196.423 399.338 197.27C401.161 198.1 402.609 199.239 403.684 200.688C404.758 202.12 405.327 203.747 405.393 205.57H401.096C400.884 203.78 400.021 202.388 398.508 201.396C397.01 200.403 395.155 199.906 392.941 199.906C391.346 199.906 389.947 200.167 388.742 200.688C387.538 201.208 386.602 201.924 385.935 202.836C385.267 203.747 384.934 204.789 384.934 205.961C384.934 207.247 385.332 208.288 386.13 209.086C386.927 209.867 387.871 210.478 388.962 210.917C390.069 211.356 391.07 211.706 391.965 211.967L395.627 212.992C396.571 213.253 397.621 213.603 398.776 214.042C399.948 214.481 401.071 215.076 402.146 215.824C403.236 216.573 404.131 217.533 404.831 218.705C405.531 219.861 405.881 221.293 405.881 223.002C405.881 224.955 405.368 226.729 404.343 228.324C403.317 229.903 401.828 231.164 399.875 232.108C397.922 233.036 395.546 233.5 392.746 233.5Z" fill="#D41C32"/>
<path d="M336.838 232.865L328.537 205.57H332.932L338.84 226.469H339.133L344.943 205.57H349.436L355.148 226.42H355.441L361.35 205.57H365.744L357.443 232.865H353.342L347.336 211.918H346.945L340.939 232.865H336.838Z" fill="#D41C32"/>
<path d="M315.158 233.451C312.701 233.451 310.544 232.865 308.688 231.693C306.833 230.521 305.384 228.878 304.343 226.762C303.317 224.646 302.805 222.188 302.805 219.389C302.805 216.54 303.317 214.058 304.343 211.942C305.384 209.81 306.833 208.158 308.688 206.986C310.544 205.814 312.701 205.229 315.158 205.229C317.632 205.229 319.797 205.814 321.652 206.986C323.508 208.158 324.956 209.81 325.998 211.942C327.04 214.058 327.561 216.54 327.561 219.389C327.561 222.188 327.04 224.646 325.998 226.762C324.956 228.878 323.508 230.521 321.652 231.693C319.797 232.865 317.632 233.451 315.158 233.451ZM315.158 229.691C317.046 229.691 318.592 229.211 319.797 228.251C321.001 227.291 321.896 226.029 322.482 224.467C323.068 222.888 323.361 221.195 323.361 219.389C323.361 217.549 323.068 215.84 322.482 214.262C321.896 212.683 321.001 211.413 319.797 210.453C318.592 209.477 317.046 208.988 315.158 208.988C313.303 208.988 311.773 209.477 310.568 210.453C309.364 211.413 308.469 212.683 307.883 214.262C307.297 215.84 307.004 217.549 307.004 219.389C307.004 221.195 307.297 222.888 307.883 224.467C308.469 226.029 309.364 227.291 310.568 228.251C311.773 229.211 313.303 229.691 315.158 229.691Z" fill="#D41C32"/>
<path d="M288.693 232.865V205.57H292.697V209.721H292.99C293.495 208.37 294.398 207.279 295.7 206.449C297.019 205.603 298.492 205.18 300.119 205.18C300.428 205.18 300.811 205.188 301.267 205.204C301.722 205.204 302.072 205.212 302.316 205.229V209.477C302.17 209.444 301.844 209.395 301.34 209.33C300.835 209.265 300.298 209.232 299.729 209.232C298.41 209.232 297.23 209.509 296.188 210.062C295.147 210.616 294.325 211.373 293.723 212.333C293.137 213.293 292.844 214.392 292.844 215.629V232.865H288.693Z" fill="#D41C32"/>
<path d="M269.211 233.354C265.988 233.354 263.156 232.597 260.715 231.083C258.29 229.569 256.394 227.421 255.026 224.638C253.675 221.838 253 218.526 253 214.701C253 210.86 253.675 207.54 255.026 204.74C256.394 201.941 258.273 199.784 260.666 198.271C263.059 196.757 265.809 196 268.918 196C270.839 196 272.629 196.285 274.289 196.854C275.949 197.424 277.43 198.238 278.732 199.296C280.035 200.354 281.117 201.607 281.979 203.056C282.858 204.504 283.469 206.107 283.811 207.865H279.27C278.879 206.661 278.366 205.587 277.731 204.643C277.113 203.682 276.364 202.868 275.485 202.201C274.606 201.518 273.622 200.997 272.531 200.639C271.441 200.281 270.236 200.102 268.918 200.102C266.77 200.102 264.808 200.663 263.034 201.786C261.276 202.893 259.868 204.537 258.811 206.718C257.769 208.882 257.248 211.544 257.248 214.701C257.248 217.842 257.777 220.495 258.835 222.66C259.893 224.825 261.325 226.469 263.132 227.592C264.938 228.699 266.965 229.252 269.211 229.252C271.294 229.252 273.125 228.804 274.704 227.909C276.283 227.014 277.52 225.753 278.415 224.125C279.31 222.481 279.758 220.544 279.758 218.314L281.125 218.607H270.188V214.701H284.055V218.607C284.055 221.602 283.42 224.206 282.15 226.42C280.881 228.617 279.123 230.326 276.877 231.547C274.647 232.751 272.092 233.354 269.211 233.354Z" fill="#D41C32"/>
<defs>
<linearGradient id="paint0_linear_937_178" x1="120.5" y1="0" x2="120.5" y2="233" gradientUnits="userSpaceOnUse">
<stop stop-color="#417505"/>
<stop offset="1" stop-color="#2B4E02"/>
</linearGradient>
</defs>
</svg>
