<svg width="216" height="209" viewBox="0 0 216 209" fill="none" xmlns="http://www.w3.org/2000/svg">
<path d="M149.818 0C157.754 10.7254 169.174 35.2582 148.207 41.891C146.226 50.531 144.287 58.7594 142.451 66.4608C144.186 62.837 147.105 59.4731 152.33 58.6864C158.113 57.6965 165.381 56.5672 167.659 51.311C167.043 61.0607 160.754 79.1715 140.571 74.3171C139.945 76.9243 139.335 79.46 138.742 81.9179C138.459 83.0913 138.18 84.2471 137.905 85.3846C139.536 82.0465 142.93 78.7754 150.349 77.621C158.303 76.278 168.32 74.6879 170.425 70.0124C171.623 78.4394 166.48 94.6035 136.349 91.8978C141.599 87.1864 154.448 88.7307 161.678 78.3194C152.061 86.8994 140.966 86.1363 136.348 91.8422C135.321 96.1052 134.37 100.058 133.519 103.665C135.481 99.5702 139.287 95.5502 147.359 94.8495C155.458 94.0226 165.644 93.1001 168.364 87.755C168.433 97.8231 161.227 116.38 131.926 110.521L131.591 111.997C129.827 119.834 127.358 128.258 126.001 140.985C124.72 152.997 124.432 168.846 126.705 191.569C127.916 172.239 133.191 135.531 151.586 119.375C176.928 97.1188 206.144 94.645 216 80.8673C198.401 114.076 202.976 135.273 145.25 163.888C134.338 169.298 127.511 181.836 126.947 199.924C126.878 202.151 126.774 203.406 126.678 203.835C126.681 210.347 126.145 211.296 125.894 203.229C125.098 177.658 115.444 159.933 100.018 152.286C18.4116 111.832 24.88 81.8659 0 34.9194C13.9331 54.397 55.2342 57.8935 91.0615 89.3577C110.434 106.371 119.513 139.509 123.592 166.603C123.349 156.304 123.761 147.912 124.517 140.825C125.886 127.985 128.389 119.427 130.135 111.667L130.823 108.645C132.508 101.328 134.734 92.1587 137.291 81.5648C137.934 78.9007 138.597 76.1459 139.279 73.3075C118.292 70.6833 118.97 51.3193 121.94 41.9476C122.162 47.6752 128.526 51.3745 133.557 54.4032C140.93 58.6421 140.335 66.9211 139.604 71.9555C141.848 62.6024 144.274 52.3662 146.77 41.4784C146.269 39.2682 144.99 35.8688 143.482 31.4965C140.786 23.6782 143.926 17.6125 146.011 14.2924C147.896 10.6529 150.924 3.52595 149.818 0ZM186.785 116.549C169.89 127.853 154.636 137.628 144.546 146.578C133.987 155.944 128.824 175.429 128.003 184.732C130.819 169.188 138.211 157.883 142.082 153.643C145.955 149.403 172.94 127.029 186.785 116.549ZM41.3011 85.3622C60.8736 100.179 99.0232 131.81 104.497 137.803C109.933 143.755 120.275 159.559 124.316 181.301C124.289 180.923 124.263 180.547 124.237 180.174C122.664 166.504 115.367 140.546 101.014 127.814C86.749 115.162 65.186 101.344 41.3011 85.3622ZM160.587 98.0753C149.807 105.244 137.137 105.264 132.172 110.032C137.862 106.01 152.571 106.487 160.587 98.0753ZM104.686 74.4615C105.206 80.4404 114.302 85.1355 121.498 88.9558C132.973 94.8269 131.315 104.408 130.425 109.283C127.827 102.856 117.623 100.379 111.371 89.9234C114.961 101.364 126.974 103.631 130.412 109.357C130.41 109.369 130.407 109.38 130.405 109.392C100.583 103.897 100.833 83.8157 104.686 74.4615ZM110.781 57.8085C111.118 62.9282 119.944 67.9438 126.923 72.0014C138.141 78.3314 136.116 86.3214 135.103 90.3165C105.88 82.2497 106.712 65.2834 110.781 57.8085ZM117.685 72.2833C121.081 81.9985 131.946 84.1393 134.925 89.1138C132.692 83.5331 123.459 81.264 117.685 72.2833ZM161.833 60.2325C154.159 67.8119 144.229 68.7138 140.757 73.5484C140.754 73.5618 140.75 73.5751 140.747 73.5884C144.865 69.3933 156.456 68.8387 161.833 60.2325ZM125.317 53.7155C127.003 63.6914 137.028 67.6768 139.367 72.9437C139.375 72.9109 139.382 72.878 139.39 72.8451C137.846 67.1769 129.41 63.3328 125.317 53.7155ZM170.828 30.9181C170.001 40.8995 163.762 59.6018 145.418 54.5651C146.463 49.7769 148.553 40.2018 156.867 38.6456C162.086 37.5485 168.639 36.2848 170.828 30.9181ZM130.994 21.7976C130.63 27.585 135.977 31.5926 140.196 34.8657C146.999 39.9071 144.717 49.438 143.575 54.2042C124.88 50.7011 127.398 31.1404 130.994 21.7976ZM165.738 39.9488C158.715 47.9826 149.249 48.8686 146.226 54.0608C149.898 49.5781 160.959 49.0591 165.738 39.9488ZM131.911 32.512C138.875 40.5978 138.449 50.1302 143.157 53.8491C139.238 49.5822 140.246 38.5139 131.911 32.512ZM152.263 11.842C154.642 22.36 150.515 33.8057 148.153 39.7664C148.231 39.8118 148.299 39.8697 148.355 39.9381C153.765 32.7431 153.935 18.3525 152.263 11.842Z" fill="url(#paint0_linear_1053_2844)"/>
<defs>
<linearGradient id="paint0_linear_1053_2844" x1="108" y1="0" x2="108" y2="209" gradientUnits="userSpaceOnUse">
<stop stop-color="#417505"/>
<stop offset="1" stop-color="#2B4E02"/>
</linearGradient>
</defs>
</svg>
