<svg width="739" height="192" viewBox="0 0 739 192" fill="none" xmlns="http://www.w3.org/2000/svg">
<path fill-rule="evenodd" clip-rule="evenodd" d="M66.0757 23.5356C58.2323 15.6904 58.2329 7.84519 66.0757 0C73.9227 7.84519 73.9226 15.6904 66.0757 23.5356ZM62.5188 133.24L53.5518 166.614C52.7535 169.585 52.3492 172.648 52.3492 175.724V177.696C52.3492 184.917 58.2032 190.771 65.4245 190.771C72.6458 190.771 78.4998 184.917 78.4998 177.696V174.89C78.4998 172.363 78.2414 169.843 77.7285 167.369L70.6546 133.24H62.5188ZM61.3687 130.862C27.0286 137.426 6.57347 123.537 0 89.2001C34.3464 82.6265 54.8025 96.5139 61.3687 130.862ZM132.609 88.675C98.2692 82.1107 77.814 95.9994 71.2406 130.336C105.587 136.91 126.043 123.023 132.609 88.675ZM62.3089 89.024C35.025 94.2395 18.7729 83.2046 13.5502 55.9232C40.8391 50.7003 57.0919 61.7342 62.3089 89.024ZM118.91 55.5056C91.6264 50.2901 75.3744 61.325 70.1516 88.6064C97.4406 93.8293 113.693 82.7955 118.91 55.5056ZM64.5898 57.3959C46.2235 60.9067 35.2834 53.4785 31.7677 35.1139C50.1374 31.5981 61.078 39.0256 64.5898 57.3959ZM102.692 34.8325C84.3252 31.3217 73.3851 38.7499 69.8693 57.1145C88.239 60.6303 99.1796 53.2028 102.692 34.8325ZM65.7655 35.8164C55.5935 37.7609 49.5345 33.6469 47.5874 23.4758C57.7612 21.5286 63.8205 25.6422 65.7655 35.8164ZM86.8712 23.3203C76.6992 21.3758 70.6402 25.4898 68.6931 35.6608C78.8669 37.608 84.9262 33.4944 86.8712 23.3203Z" fill="#F5A623"/>
<path d="M716.988 34.28C716.988 33.56 716.948 32.84 716.868 32.12C716.868 31.32 716.868 30.44 716.868 29.48C716.868 26.92 716.948 24.2 717.108 21.32C717.268 18.44 717.428 16 717.588 14L738.948 14.36C738.708 17.08 738.428 20.16 738.108 23.6C737.868 27.04 737.708 30.6 737.628 34.28H716.988ZM716.508 120.2C716.268 115.24 716.108 109.96 716.028 104.36C715.948 98.68 715.908 93 715.908 87.32C715.908 79.88 715.988 72.64 716.148 65.6C716.308 58.56 716.508 52.16 716.748 46.4L737.388 46.28C737.068 49.96 736.868 54.52 736.788 59.96C736.708 65.32 736.668 70.96 736.668 76.88C736.668 82.72 736.708 88.48 736.788 94.16C736.868 99.84 736.948 105 737.028 109.64C737.188 114.2 737.308 117.72 737.388 120.2H716.508Z" fill="#417505"/>
<path d="M688.919 121.28C684.119 121.28 680.319 120.24 677.519 118.16C674.719 116.16 672.679 113.36 671.399 109.76C670.119 106.16 669.279 102.04 668.879 97.4C668.559 92.76 668.399 87.88 668.399 82.76C668.399 77.48 668.599 72 668.999 66.32C663.639 67.04 658.479 67.96 653.519 69.08L649.799 50.24C656.439 48.48 663.519 47.2 671.039 46.4C671.599 42.32 672.199 38.04 672.839 33.56C673.479 29 674.199 24.2 674.999 19.16L695.639 20.96C694.679 25.12 693.839 29.28 693.119 33.44C692.399 37.52 691.759 41.48 691.199 45.32C695.679 45.32 699.879 45.44 703.799 45.68C707.799 45.84 711.479 46.16 714.839 46.64L712.439 65.48C709.639 65.16 706.719 64.96 703.679 64.88C700.719 64.72 697.719 64.64 694.679 64.64C692.839 64.64 690.999 64.68 689.159 64.76C688.679 70.6 688.359 75.6 688.199 79.76C688.119 83.92 688.079 86.88 688.079 88.64C688.079 93.04 688.319 96.2 688.799 98.12C689.359 100.04 690.239 101 691.439 101C692.799 101 694.319 100.56 695.999 99.68C697.679 98.72 699.319 97.44 700.919 95.84C702.599 94.24 703.999 92.52 705.119 90.68L714.359 110C706.439 117.52 697.959 121.28 688.919 121.28Z" fill="#417505"/>
<path d="M612.54 121.4C604.86 121.4 598.1 119.88 592.26 116.84C586.5 113.88 581.98 109.72 578.7 104.36C575.5 99.0001 573.9 92.8001 573.9 85.7601C573.9 81.5201 574.62 77.0801 576.06 72.4401C577.5 67.7201 579.82 63.3201 583.02 59.2401C586.22 55.1601 590.42 51.8401 595.62 49.2801C600.9 46.7201 607.3 45.4401 614.82 45.4401C620.26 45.4401 624.82 46.0401 628.5 47.2401C632.26 48.4401 635.3 50.0001 637.62 51.9201C640.02 53.8401 641.82 55.8801 643.02 58.0401C644.3 60.2001 645.14 62.2801 645.54 64.2801C646.02 66.2001 646.26 67.8001 646.26 69.0801C646.26 76.8401 642.98 82.8401 636.42 87.0801C629.94 91.2401 620.74 93.3201 608.82 93.3201C606.1 93.3201 603.5 93.2001 601.02 92.9601C598.62 92.7201 596.38 92.4401 594.3 92.1201C595.82 96.1201 598.34 99.0801 601.86 101C605.38 102.84 609.02 103.76 612.78 103.76C618.22 103.76 623.02 102.8 627.18 100.88C631.34 98.8801 635.26 95.8401 638.94 91.7601L649.62 107.12C647.06 109.2 644.18 111.36 640.98 113.6C637.86 115.84 634.02 117.68 629.46 119.12C624.9 120.64 619.26 121.4 612.54 121.4ZM615.18 63.4401C610.46 63.4401 606.3 64.6401 602.7 67.0401C599.1 69.4401 596.46 72.6001 594.78 76.5201C596.78 76.8401 598.74 77.1201 600.66 77.3601C602.66 77.5201 604.62 77.6001 606.54 77.6001C608.3 77.6001 610.3 77.4401 612.54 77.1201C614.86 76.8001 617.1 76.3201 619.26 75.6801C621.5 75.0401 623.34 74.2401 624.78 73.2801C626.22 72.2401 626.94 71.0401 626.94 69.6801C626.94 69.0401 626.62 68.2401 625.98 67.2801C625.34 66.3201 624.18 65.4401 622.5 64.6401C620.82 63.8401 618.38 63.4401 615.18 63.4401Z" fill="#417505"/>
<path d="M503.674 120.08C503.674 115.2 503.674 108.96 503.674 101.36C503.754 93.6801 503.834 85.1601 503.914 75.8001C504.074 66.4401 504.274 56.6001 504.514 46.2801C504.834 35.9601 505.194 25.6401 505.594 15.3201L525.994 15.2001C525.674 19.7601 525.354 25.3201 525.034 31.8801C524.714 38.4401 524.434 45.4801 524.194 53.0001C529.714 47.8801 536.034 45.3201 543.154 45.3201C548.034 45.3201 552.074 46.2001 555.274 47.9601C558.554 49.7201 561.194 52.0401 563.194 54.9201C565.194 57.7201 566.714 60.8001 567.754 64.1601C568.794 67.5201 569.514 70.8401 569.914 74.1201C570.314 77.3201 570.514 80.1601 570.514 82.6401C570.514 87.9201 570.474 93.1601 570.394 98.3601C570.314 103.56 570.234 108.12 570.154 112.04C570.154 115.96 570.154 118.72 570.154 120.32L549.154 120.44C549.474 117.32 549.674 113.72 549.754 109.64C549.914 105.56 549.994 101.36 549.994 97.0401C550.074 92.6401 550.114 88.4801 550.114 84.5601C550.114 71.6001 547.074 65.1201 540.994 65.1201C539.154 65.1201 537.114 65.6001 534.874 66.5601C532.634 67.5201 530.474 69.0401 528.394 71.1201C526.394 73.2001 524.794 75.9601 523.594 79.4001C523.514 84.6801 523.474 89.8001 523.474 94.7601C523.474 99.3201 523.514 103.6 523.594 107.6C523.754 111.52 523.874 115.48 523.954 119.48L503.674 120.08Z" fill="#417505"/>
<path d="M409.872 120.32C409.632 113.36 409.512 105.52 409.512 96.8001C409.512 88.6401 409.632 80.0001 409.872 70.8801C410.112 61.7601 410.512 52.4801 411.072 43.0401C411.632 33.6001 412.312 24.4001 413.112 15.4401L433.992 15.8001C433.272 21.4001 432.632 27.1201 432.072 32.9601C431.592 38.7201 431.192 44.5201 430.872 50.3601C434.232 48.0401 438.272 45.3601 442.992 42.3201C447.792 39.2001 452.912 36.0801 458.352 32.9601C463.792 29.7601 469.232 26.7201 474.672 23.8401C480.192 20.9601 485.352 18.5201 490.152 16.5201L496.032 36.9201C491.152 38.9201 486.232 41.1201 481.272 43.5201C476.392 45.9201 471.712 48.3201 467.232 50.7201C462.832 53.0401 458.912 55.2801 455.472 57.4401C452.032 59.5201 449.312 61.3601 447.312 62.9601C445.312 64.4801 444.312 65.6001 444.312 66.3201C444.312 67.3601 445.872 69.1201 448.992 71.6001C452.112 74.0801 456.352 77.0001 461.712 80.3601C467.072 83.7201 473.152 87.2401 479.952 90.9201C486.832 94.6001 493.952 98.2001 501.312 101.72L490.152 120.2C481.032 115.48 472.632 110.76 464.952 106.04C457.352 101.24 450.552 96.7201 444.552 92.4801C438.632 88.2401 433.712 84.6001 429.792 81.5601C429.792 84.5201 429.792 87.4801 429.792 90.4401C429.792 95.8001 429.832 101 429.912 106.04C430.072 111 430.232 115.64 430.392 119.96L409.872 120.32Z" fill="#417505"/>
<path d="M345.728 144.32L327.728 134.72C332.208 129.76 336.568 124.64 340.808 119.36C345.048 114.16 349.088 108.8 352.928 103.28C349.168 98.2401 345.408 92.8401 341.648 87.0801C337.888 81.2401 334.408 75.5201 331.208 69.9201C328.008 64.3201 325.408 59.3201 323.408 54.9201L342.608 46.5201C344.048 50.3601 345.888 54.5201 348.128 59.0001C350.448 63.4801 352.968 68.0401 355.688 72.6801C358.488 77.3201 361.368 81.7601 364.328 86.0001C372.968 72.0001 380.088 58.2001 385.688 44.6001L405.608 52.5201C402.008 59.4001 397.928 66.8001 393.368 74.7201C388.888 82.5601 384.048 90.5601 378.848 98.7201C373.728 106.8 368.368 114.72 362.768 122.48C357.168 130.32 351.488 137.6 345.728 144.32Z" fill="#417505"/>
<path d="M249.623 121.28L246.623 105.56C247.663 105.16 248.903 104.8 250.343 104.48C252.823 102.88 255.663 100.76 258.863 98.1201C262.143 95.4001 265.503 92.4401 268.943 89.2401C272.383 86.0401 275.703 82.8801 278.903 79.7601C282.103 76.5601 284.903 73.6801 287.303 71.1201C289.703 68.5601 291.463 66.5601 292.583 65.1201C292.983 64.5601 293.263 64.1601 293.423 63.9201C293.583 63.6001 293.663 63.4001 293.663 63.3201C293.663 63.4001 293.103 63.4401 291.983 63.4401C290.863 63.4401 289.863 63.4401 288.983 63.4401C286.103 63.4401 282.583 63.6801 278.423 64.1601C274.343 64.5601 269.943 65.2001 265.223 66.0801C260.503 66.9601 255.783 68.1601 251.063 69.6801L247.463 50.3601C255.703 48.7601 263.543 47.5601 270.983 46.7601C278.503 45.8801 285.583 45.4401 292.223 45.4401C294.783 45.4401 297.503 45.5201 300.383 45.6801C303.343 45.8401 306.143 46.3201 308.783 47.1201C311.423 47.8401 313.583 49.0801 315.263 50.8401C316.943 52.5201 317.783 54.8801 317.783 57.9201C317.783 60.0801 316.863 62.7601 315.023 65.9601C313.263 69.0801 310.743 72.5601 307.463 76.4001C304.263 80.1601 300.503 84.1201 296.183 88.2801C291.943 92.4401 287.343 96.6001 282.383 100.76C286.783 100.52 291.143 100.4 295.463 100.4C301.623 100.4 307.063 100.52 311.783 100.76C316.503 101 319.623 101.32 321.143 101.72L321.263 120.44C319.023 120.28 315.423 120.12 310.463 119.96C305.503 119.88 300.023 119.84 294.023 119.84C288.423 119.84 282.703 119.88 276.863 119.96C271.103 120.12 265.783 120.28 260.903 120.44C256.103 120.68 252.343 120.96 249.623 121.28Z" fill="#417505"/>
<path d="M193.96 120.68C187.88 120.68 182.4 120.24 177.52 119.36C172.72 118.56 168.64 116.96 165.28 114.56C161.92 112.24 159.36 108.8 157.6 104.24C155.84 99.6801 154.96 93.7201 154.96 86.3601C154.96 81.0001 155.24 75.4401 155.8 69.6801C156.36 63.9201 157.04 58.3601 157.84 53.0001C158.72 47.5601 159.56 42.7201 160.36 38.4801C158.76 38.7201 157.4 38.9601 156.28 39.2001L154 20.1201C157.92 19.4001 162.44 18.8001 167.56 18.3201C172.76 17.7601 178.24 17.2801 184 16.8801C189.84 16.4801 195.64 16.2001 201.4 16.0401C207.16 15.8001 212.56 15.6801 217.6 15.6801C221.6 15.6801 225.24 15.7601 228.52 15.9201C231.88 16.0001 234.64 16.1601 236.8 16.4001L235.84 36.4401C233.68 36.0401 230.76 35.7601 227.08 35.6001C223.4 35.3601 219.28 35.2401 214.72 35.2401C209.36 35.2401 203.64 35.3601 197.56 35.6001C191.48 35.8401 185.68 36.1201 180.16 36.4401C179.52 39.8001 178.96 43.2401 178.48 46.7601C178 50.2801 177.56 53.7601 177.16 57.2001C181.8 56.5601 186.88 56.0801 192.4 55.7601C198 55.3601 203.56 55.0801 209.08 54.9201C214.6 54.6801 219.56 54.5601 223.96 54.5601C226.52 54.5601 228.8 54.6001 230.8 54.6801C232.8 54.6801 234.44 54.7601 235.72 54.9201L235.24 74.6001C234.2 74.5201 232.76 74.4801 230.92 74.4801C229.16 74.4001 227.08 74.3601 224.68 74.3601C221.24 74.3601 217.4 74.4401 213.16 74.6001C208.92 74.6801 204.52 74.8401 199.96 75.0801C195.48 75.2401 191.12 75.4801 186.88 75.8001C182.64 76.0401 178.8 76.3601 175.36 76.7601C175.04 81.2401 174.88 84.8401 174.88 87.5601C174.88 91.4801 175.4 94.3601 176.44 96.2001C177.48 98.0401 179.2 99.2401 181.6 99.8001C184.08 100.28 187.32 100.52 191.32 100.52C198.44 100.52 206.08 99.9201 214.24 98.7201C222.48 97.5201 230.6 95.6401 238.6 93.0801L239.92 113.96C230.32 116.6 221.6 118.36 213.76 119.24C206 120.2 199.4 120.68 193.96 120.68Z" fill="#417505"/>
<path d="M438.424 190.865V163.57H442.428V167.721H442.721C443.225 166.37 444.129 165.279 445.431 164.449C446.749 163.603 448.222 163.18 449.85 163.18C450.159 163.18 450.541 163.188 450.997 163.204C451.453 163.204 451.803 163.212 452.047 163.229V167.477C451.9 167.444 451.575 167.395 451.07 167.33C450.566 167.265 450.029 167.232 449.459 167.232C448.141 167.232 446.961 167.509 445.919 168.062C444.877 168.616 444.055 169.373 443.453 170.333C442.867 171.293 442.574 172.392 442.574 173.629V190.865H438.424Z" fill="#D41C32"/>
<path d="M423.189 191.451C420.569 191.451 418.299 190.865 416.378 189.693C414.474 188.521 413.009 186.886 411.983 184.786C410.958 182.67 410.445 180.221 410.445 177.438C410.445 174.638 410.95 172.172 411.959 170.04C412.968 167.908 414.384 166.24 416.207 165.035C418.046 163.831 420.195 163.229 422.652 163.229C424.068 163.229 425.476 163.465 426.876 163.937C428.276 164.409 429.545 165.174 430.685 166.231C431.84 167.289 432.76 168.689 433.443 170.431C434.127 172.172 434.469 174.312 434.469 176.852V178.658H413.424V175.045H432.198L430.27 176.412C430.27 174.589 429.985 172.97 429.415 171.554C428.845 170.138 427.991 169.023 426.852 168.209C425.729 167.395 424.329 166.988 422.652 166.988C420.976 166.988 419.535 167.403 418.331 168.233C417.143 169.047 416.231 170.113 415.597 171.432C414.962 172.75 414.645 174.166 414.645 175.68V178.072C414.645 180.139 415.003 181.889 415.719 183.321C416.435 184.754 417.436 185.844 418.722 186.593C420.007 187.325 421.497 187.691 423.189 187.691C424.28 187.691 425.273 187.537 426.168 187.228C427.063 186.902 427.836 186.422 428.487 185.787C429.138 185.136 429.635 184.339 429.977 183.395L434.029 184.566C433.606 185.934 432.89 187.138 431.881 188.18C430.888 189.205 429.651 190.011 428.17 190.597C426.689 191.166 425.029 191.451 423.189 191.451Z" fill="#D41C32"/>
<path d="M408.053 163.57V167.135H393.941V163.57H408.053ZM398.043 157.076H402.193V183.053C402.193 184.469 402.486 185.51 403.072 186.178C403.658 186.829 404.586 187.154 405.855 187.154C406.132 187.154 406.417 187.138 406.71 187.105C407.019 187.073 407.353 187.024 407.711 186.959L408.59 190.719C408.199 190.865 407.719 190.979 407.149 191.061C406.596 191.158 406.035 191.207 405.465 191.207C403.268 191.207 401.477 190.556 400.094 189.254C398.727 187.952 398.043 186.259 398.043 184.176V157.076Z" fill="#D41C32"/>
<path d="M378.268 190.865V163.57H382.271V167.721H382.564C383.069 166.37 383.972 165.279 385.274 164.449C386.593 163.603 388.066 163.18 389.693 163.18C390.003 163.18 390.385 163.188 390.841 163.204C391.297 163.204 391.646 163.212 391.891 163.229V167.477C391.744 167.444 391.419 167.395 390.914 167.33C390.41 167.265 389.872 167.232 389.303 167.232C387.984 167.232 386.804 167.509 385.763 168.062C384.721 168.616 383.899 169.373 383.297 170.333C382.711 171.293 382.418 172.392 382.418 173.629V190.865H378.268Z" fill="#D41C32"/>
<path d="M360.396 191.5C358.671 191.5 357.101 191.174 355.685 190.523C354.269 189.856 353.146 188.896 352.315 187.643C351.485 186.389 351.07 184.876 351.07 183.102C351.07 181.539 351.38 180.278 351.998 179.317C352.617 178.341 353.438 177.576 354.464 177.022C355.506 176.453 356.645 176.03 357.882 175.753C359.135 175.476 360.396 175.257 361.666 175.094C363.326 174.882 364.669 174.719 365.694 174.605C366.736 174.492 367.493 174.296 367.965 174.02C368.453 173.743 368.697 173.271 368.697 172.604V172.457C368.697 170.715 368.217 169.365 367.257 168.404C366.313 167.428 364.872 166.939 362.936 166.939C360.95 166.939 359.387 167.379 358.248 168.258C357.109 169.12 356.311 170.048 355.855 171.041L351.852 169.625C352.568 167.965 353.52 166.671 354.708 165.743C355.912 164.815 357.215 164.164 358.614 163.79C360.03 163.416 361.422 163.229 362.789 163.229C363.668 163.229 364.677 163.334 365.816 163.546C366.956 163.741 368.062 164.164 369.137 164.815C370.227 165.45 371.122 166.419 371.822 167.721C372.538 169.007 372.896 170.732 372.896 172.896V190.865H368.697V187.154H368.502C368.225 187.74 367.753 188.375 367.086 189.059C366.419 189.726 365.532 190.304 364.425 190.792C363.334 191.264 361.992 191.5 360.396 191.5ZM361.031 187.74C362.691 187.74 364.091 187.415 365.23 186.764C366.37 186.113 367.232 185.274 367.818 184.249C368.404 183.207 368.697 182.125 368.697 181.002V177.145C368.518 177.356 368.128 177.551 367.525 177.73C366.939 177.893 366.256 178.04 365.475 178.17C364.71 178.3 363.961 178.414 363.229 178.512C362.496 178.593 361.91 178.658 361.471 178.707C360.38 178.854 359.363 179.09 358.419 179.415C357.475 179.724 356.71 180.188 356.124 180.807C355.554 181.425 355.27 182.271 355.27 183.346C355.27 184.794 355.807 185.893 356.881 186.642C357.971 187.374 359.355 187.74 361.031 187.74Z" fill="#D41C32"/>
<path d="M311.227 190.865V163.57H315.23V167.867H315.621C316.191 166.402 317.11 165.263 318.38 164.449C319.649 163.635 321.171 163.229 322.945 163.229C324.736 163.229 326.225 163.635 327.413 164.449C328.618 165.263 329.553 166.402 330.221 167.867H330.514C331.23 166.451 332.28 165.328 333.663 164.498C335.063 163.652 336.731 163.229 338.668 163.229C341.109 163.229 343.111 163.993 344.674 165.523C346.236 167.037 347.018 169.397 347.018 172.604V190.865H342.818V172.604C342.818 170.585 342.265 169.145 341.158 168.282C340.051 167.42 338.749 166.988 337.252 166.988C335.348 166.988 333.867 167.574 332.809 168.746C331.767 169.902 331.246 171.35 331.246 173.092V190.865H326.949V172.164C326.949 170.618 326.453 169.373 325.46 168.429C324.467 167.468 323.173 166.988 321.578 166.988C320.488 166.988 319.47 167.281 318.526 167.867C317.582 168.453 316.817 169.259 316.231 170.284C315.662 171.31 315.377 172.49 315.377 173.824V190.865H311.227Z" fill="#D41C32"/>
<path d="M293.746 191.5C291.142 191.5 288.888 191.085 286.983 190.255C285.079 189.409 283.582 188.237 282.491 186.739C281.417 185.226 280.807 183.476 280.66 181.49H285.201C285.331 182.857 285.795 183.989 286.593 184.884C287.407 185.779 288.44 186.446 289.693 186.886C290.947 187.325 292.298 187.545 293.746 187.545C295.423 187.545 296.928 187.268 298.263 186.715C299.614 186.161 300.68 185.388 301.461 184.396C302.242 183.403 302.633 182.239 302.633 180.904C302.633 179.7 302.291 178.723 301.607 177.975C300.924 177.226 300.029 176.616 298.922 176.144C297.831 175.672 296.643 175.257 295.357 174.898L290.914 173.629C288.066 172.815 285.812 171.651 284.151 170.138C282.507 168.608 281.686 166.614 281.686 164.156C281.686 162.122 282.231 160.348 283.321 158.834C284.428 157.304 285.917 156.116 287.789 155.27C289.677 154.423 291.777 154 294.088 154C296.432 154 298.515 154.423 300.338 155.27C302.161 156.1 303.609 157.239 304.684 158.688C305.758 160.12 306.327 161.747 306.393 163.57H302.096C301.884 161.78 301.021 160.388 299.508 159.396C298.01 158.403 296.155 157.906 293.941 157.906C292.346 157.906 290.947 158.167 289.742 158.688C288.538 159.208 287.602 159.924 286.935 160.836C286.267 161.747 285.934 162.789 285.934 163.961C285.934 165.247 286.332 166.288 287.13 167.086C287.927 167.867 288.871 168.478 289.962 168.917C291.069 169.356 292.07 169.706 292.965 169.967L296.627 170.992C297.571 171.253 298.621 171.603 299.776 172.042C300.948 172.481 302.071 173.076 303.146 173.824C304.236 174.573 305.131 175.533 305.831 176.705C306.531 177.861 306.881 179.293 306.881 181.002C306.881 182.955 306.368 184.729 305.343 186.324C304.317 187.903 302.828 189.164 300.875 190.108C298.922 191.036 296.546 191.5 293.746 191.5Z" fill="#D41C32"/>
<path d="M237.838 190.865L229.537 163.57H233.932L239.84 184.469H240.133L245.943 163.57H250.436L256.148 184.42H256.441L262.35 163.57H266.744L258.443 190.865H254.342L248.336 169.918H247.945L241.939 190.865H237.838Z" fill="#D41C32"/>
<path d="M216.158 191.451C213.701 191.451 211.544 190.865 209.688 189.693C207.833 188.521 206.384 186.878 205.343 184.762C204.317 182.646 203.805 180.188 203.805 177.389C203.805 174.54 204.317 172.058 205.343 169.942C206.384 167.81 207.833 166.158 209.688 164.986C211.544 163.814 213.701 163.229 216.158 163.229C218.632 163.229 220.797 163.814 222.652 164.986C224.508 166.158 225.956 167.81 226.998 169.942C228.04 172.058 228.561 174.54 228.561 177.389C228.561 180.188 228.04 182.646 226.998 184.762C225.956 186.878 224.508 188.521 222.652 189.693C220.797 190.865 218.632 191.451 216.158 191.451ZM216.158 187.691C218.046 187.691 219.592 187.211 220.797 186.251C222.001 185.291 222.896 184.029 223.482 182.467C224.068 180.888 224.361 179.195 224.361 177.389C224.361 175.549 224.068 173.84 223.482 172.262C222.896 170.683 222.001 169.413 220.797 168.453C219.592 167.477 218.046 166.988 216.158 166.988C214.303 166.988 212.773 167.477 211.568 168.453C210.364 169.413 209.469 170.683 208.883 172.262C208.297 173.84 208.004 175.549 208.004 177.389C208.004 179.195 208.297 180.888 208.883 182.467C209.469 184.029 210.364 185.291 211.568 186.251C212.773 187.211 214.303 187.691 216.158 187.691Z" fill="#D41C32"/>
<path d="M189.693 190.865V163.57H193.697V167.721H193.99C194.495 166.37 195.398 165.279 196.7 164.449C198.019 163.603 199.492 163.18 201.119 163.18C201.428 163.18 201.811 163.188 202.267 163.204C202.722 163.204 203.072 163.212 203.316 163.229V167.477C203.17 167.444 202.844 167.395 202.34 167.33C201.835 167.265 201.298 167.232 200.729 167.232C199.41 167.232 198.23 167.509 197.188 168.062C196.147 168.616 195.325 169.373 194.723 170.333C194.137 171.293 193.844 172.392 193.844 173.629V190.865H189.693Z" fill="#D41C32"/>
<path d="M170.211 191.354C166.988 191.354 164.156 190.597 161.715 189.083C159.29 187.569 157.394 185.421 156.026 182.638C154.675 179.838 154 176.526 154 172.701C154 168.86 154.675 165.54 156.026 162.74C157.394 159.941 159.273 157.784 161.666 156.271C164.059 154.757 166.809 154 169.918 154C171.839 154 173.629 154.285 175.289 154.854C176.949 155.424 178.43 156.238 179.732 157.296C181.035 158.354 182.117 159.607 182.979 161.056C183.858 162.504 184.469 164.107 184.811 165.865H180.27C179.879 164.661 179.366 163.587 178.731 162.643C178.113 161.682 177.364 160.868 176.485 160.201C175.606 159.518 174.622 158.997 173.531 158.639C172.441 158.281 171.236 158.102 169.918 158.102C167.77 158.102 165.808 158.663 164.034 159.786C162.276 160.893 160.868 162.537 159.811 164.718C158.769 166.882 158.248 169.544 158.248 172.701C158.248 175.842 158.777 178.495 159.835 180.66C160.893 182.825 162.325 184.469 164.132 185.592C165.938 186.699 167.965 187.252 170.211 187.252C172.294 187.252 174.125 186.804 175.704 185.909C177.283 185.014 178.52 183.753 179.415 182.125C180.31 180.481 180.758 178.544 180.758 176.314L182.125 176.607H171.188V172.701H185.055V176.607C185.055 179.602 184.42 182.206 183.15 184.42C181.881 186.617 180.123 188.326 177.877 189.547C175.647 190.751 173.092 191.354 170.211 191.354Z" fill="#D41C32"/>
<path fill-rule="evenodd" clip-rule="evenodd" d="M739 175H461V173H739V175Z" fill="#D41C32"/>
</svg>
