<svg width="585" height="397" viewBox="0 0 585 397" fill="none" xmlns="http://www.w3.org/2000/svg">
<path fill-rule="evenodd" clip-rule="evenodd" d="M292.076 23.5356C284.232 15.6904 284.233 7.84519 292.076 0C299.923 7.84519 299.923 15.6904 292.076 23.5356ZM288.519 133.24L279.552 166.614C278.753 169.585 278.349 172.648 278.349 175.724V177.696C278.349 184.917 284.203 190.771 291.424 190.771C298.646 190.771 304.5 184.917 304.5 177.696V174.89C304.5 172.363 304.241 169.843 303.729 167.369L296.655 133.24H288.519ZM287.369 130.861C253.029 137.426 232.573 123.537 226 89.2001C260.346 82.6265 280.802 96.5139 287.369 130.861ZM358.609 88.675C324.269 82.1107 303.814 95.9994 297.241 130.336C331.587 136.91 352.043 123.023 358.609 88.675ZM288.309 89.024C261.025 94.2395 244.773 83.2046 239.55 55.9232C266.839 50.7003 283.092 61.7342 288.309 89.024ZM344.91 55.5056C317.626 50.2901 301.374 61.325 296.152 88.6064C323.441 93.8293 339.693 82.7955 344.91 55.5056ZM290.59 57.3959C272.224 60.9067 261.283 53.4785 257.768 35.1139C276.137 31.5981 287.078 39.0256 290.59 57.3959ZM328.692 34.8325C310.325 31.3217 299.385 38.7499 295.869 57.1145C314.239 60.6303 325.18 53.2028 328.692 34.8325ZM291.765 35.8164C281.594 37.7609 275.534 33.6469 273.587 23.4758C283.761 21.5286 289.82 25.6422 291.765 35.8164ZM312.871 23.3203C302.699 21.3758 296.64 25.4898 294.693 35.6608C304.867 37.608 310.926 33.4944 312.871 23.3203Z" fill="#F5A623"/>
<path d="M562.988 224.28C562.988 223.56 562.948 222.84 562.868 222.12C562.868 221.32 562.868 220.44 562.868 219.48C562.868 216.92 562.948 214.2 563.108 211.32C563.268 208.44 563.428 206 563.588 204L584.948 204.36C584.708 207.08 584.428 210.16 584.108 213.6C583.868 217.04 583.708 220.6 583.628 224.28H562.988ZM562.508 310.2C562.268 305.24 562.108 299.96 562.028 294.36C561.948 288.68 561.908 283 561.908 277.32C561.908 269.88 561.988 262.64 562.148 255.6C562.308 248.56 562.508 242.16 562.748 236.4L583.388 236.28C583.068 239.96 582.868 244.52 582.788 249.96C582.708 255.32 582.668 260.96 582.668 266.88C582.668 272.72 582.708 278.48 582.788 284.16C582.868 289.84 582.948 295 583.028 299.64C583.188 304.2 583.308 307.72 583.388 310.2H562.508Z" fill="#417505"/>
<path d="M534.919 311.28C530.119 311.28 526.319 310.24 523.519 308.16C520.719 306.16 518.679 303.36 517.399 299.76C516.119 296.16 515.279 292.04 514.879 287.4C514.559 282.76 514.399 277.88 514.399 272.76C514.399 267.48 514.599 262 514.999 256.32C509.639 257.04 504.479 257.96 499.519 259.08L495.799 240.24C502.439 238.48 509.519 237.2 517.039 236.4C517.599 232.32 518.199 228.04 518.839 223.56C519.479 219 520.199 214.2 520.999 209.16L541.639 210.96C540.679 215.12 539.839 219.28 539.119 223.44C538.399 227.52 537.759 231.48 537.199 235.32C541.679 235.32 545.879 235.44 549.799 235.68C553.799 235.84 557.479 236.16 560.839 236.64L558.439 255.48C555.639 255.16 552.719 254.96 549.679 254.88C546.719 254.72 543.719 254.64 540.679 254.64C538.839 254.64 536.999 254.68 535.159 254.76C534.679 260.6 534.359 265.6 534.199 269.76C534.119 273.92 534.079 276.88 534.079 278.64C534.079 283.04 534.319 286.2 534.799 288.12C535.359 290.04 536.239 291 537.439 291C538.799 291 540.319 290.56 541.999 289.68C543.679 288.72 545.319 287.44 546.919 285.84C548.599 284.24 549.999 282.52 551.119 280.68L560.359 300C552.439 307.52 543.959 311.28 534.919 311.28Z" fill="#417505"/>
<path d="M458.54 311.4C450.86 311.4 444.1 309.88 438.26 306.84C432.5 303.88 427.98 299.72 424.7 294.36C421.5 289 419.9 282.8 419.9 275.76C419.9 271.52 420.62 267.08 422.06 262.44C423.5 257.72 425.82 253.32 429.02 249.24C432.22 245.16 436.42 241.84 441.62 239.28C446.9 236.72 453.3 235.44 460.82 235.44C466.26 235.44 470.82 236.04 474.5 237.24C478.26 238.44 481.3 240 483.62 241.92C486.02 243.84 487.82 245.88 489.02 248.04C490.3 250.2 491.14 252.28 491.54 254.28C492.02 256.2 492.26 257.8 492.26 259.08C492.26 266.84 488.98 272.84 482.42 277.08C475.94 281.24 466.74 283.32 454.82 283.32C452.1 283.32 449.5 283.2 447.02 282.96C444.62 282.72 442.38 282.44 440.3 282.12C441.82 286.12 444.34 289.08 447.86 291C451.38 292.84 455.02 293.76 458.78 293.76C464.22 293.76 469.02 292.8 473.18 290.88C477.34 288.88 481.26 285.84 484.94 281.76L495.62 297.12C493.06 299.2 490.18 301.36 486.98 303.6C483.86 305.84 480.02 307.68 475.46 309.12C470.9 310.64 465.26 311.4 458.54 311.4ZM461.18 253.44C456.46 253.44 452.3 254.64 448.7 257.04C445.1 259.44 442.46 262.6 440.78 266.52C442.78 266.84 444.74 267.12 446.66 267.36C448.66 267.52 450.62 267.6 452.54 267.6C454.3 267.6 456.3 267.44 458.54 267.12C460.86 266.8 463.1 266.32 465.26 265.68C467.5 265.04 469.34 264.24 470.78 263.28C472.22 262.24 472.94 261.04 472.94 259.68C472.94 259.04 472.62 258.24 471.98 257.28C471.34 256.32 470.18 255.44 468.5 254.64C466.82 253.84 464.38 253.44 461.18 253.44Z" fill="#417505"/>
<path d="M349.674 310.08C349.674 305.2 349.674 298.96 349.674 291.36C349.754 283.68 349.834 275.16 349.914 265.8C350.074 256.44 350.274 246.6 350.514 236.28C350.834 225.96 351.194 215.64 351.594 205.32L371.994 205.2C371.674 209.76 371.354 215.32 371.034 221.88C370.714 228.44 370.434 235.48 370.194 243C375.714 237.88 382.034 235.32 389.154 235.32C394.034 235.32 398.074 236.2 401.274 237.96C404.554 239.72 407.194 242.04 409.194 244.92C411.194 247.72 412.714 250.8 413.754 254.16C414.794 257.52 415.514 260.84 415.914 264.12C416.314 267.32 416.514 270.16 416.514 272.64C416.514 277.92 416.474 283.16 416.394 288.36C416.314 293.56 416.234 298.12 416.154 302.04C416.154 305.96 416.154 308.72 416.154 310.32L395.154 310.44C395.474 307.32 395.674 303.72 395.754 299.64C395.914 295.56 395.994 291.36 395.994 287.04C396.074 282.64 396.114 278.48 396.114 274.56C396.114 261.6 393.074 255.12 386.994 255.12C385.154 255.12 383.114 255.6 380.874 256.56C378.634 257.52 376.474 259.04 374.394 261.12C372.394 263.2 370.794 265.96 369.594 269.4C369.514 274.68 369.474 279.8 369.474 284.76C369.474 289.32 369.514 293.6 369.594 297.6C369.754 301.52 369.874 305.48 369.954 309.48L349.674 310.08Z" fill="#417505"/>
<path d="M255.872 310.32C255.632 303.36 255.512 295.52 255.512 286.8C255.512 278.64 255.632 270 255.872 260.88C256.112 251.76 256.512 242.48 257.072 233.04C257.632 223.6 258.312 214.4 259.112 205.44L279.992 205.8C279.272 211.4 278.632 217.12 278.072 222.96C277.592 228.72 277.192 234.52 276.872 240.36C280.232 238.04 284.272 235.36 288.992 232.32C293.792 229.2 298.912 226.08 304.352 222.96C309.792 219.76 315.232 216.72 320.672 213.84C326.192 210.96 331.352 208.52 336.152 206.52L342.032 226.92C337.152 228.92 332.232 231.12 327.272 233.52C322.392 235.92 317.712 238.32 313.232 240.72C308.832 243.04 304.912 245.28 301.472 247.44C298.032 249.52 295.312 251.36 293.312 252.96C291.312 254.48 290.312 255.6 290.312 256.32C290.312 257.36 291.872 259.12 294.992 261.6C298.112 264.08 302.352 267 307.712 270.36C313.072 273.72 319.152 277.24 325.952 280.92C332.832 284.6 339.952 288.2 347.312 291.72L336.152 310.2C327.032 305.48 318.632 300.76 310.952 296.04C303.352 291.24 296.552 286.72 290.552 282.48C284.632 278.24 279.712 274.6 275.792 271.56C275.792 274.52 275.792 277.48 275.792 280.44C275.792 285.8 275.832 291 275.912 296.04C276.072 301 276.232 305.64 276.392 309.96L255.872 310.32Z" fill="#417505"/>
<path d="M191.728 334.32L173.728 324.72C178.208 319.76 182.568 314.64 186.808 309.36C191.048 304.16 195.088 298.8 198.928 293.28C195.168 288.24 191.408 282.84 187.648 277.08C183.888 271.24 180.408 265.52 177.208 259.92C174.008 254.32 171.408 249.32 169.408 244.92L188.608 236.52C190.048 240.36 191.888 244.52 194.128 249C196.448 253.48 198.968 258.04 201.688 262.68C204.488 267.32 207.368 271.76 210.328 276C218.968 262 226.088 248.2 231.688 234.6L251.608 242.52C248.008 249.4 243.928 256.8 239.368 264.72C234.888 272.56 230.048 280.56 224.848 288.72C219.728 296.8 214.368 304.72 208.768 312.48C203.168 320.32 197.488 327.6 191.728 334.32Z" fill="#417505"/>
<path d="M95.623 311.28L92.623 295.56C93.663 295.16 94.903 294.8 96.343 294.48C98.823 292.88 101.663 290.76 104.863 288.12C108.143 285.4 111.503 282.44 114.943 279.24C118.383 276.04 121.703 272.88 124.903 269.76C128.103 266.56 130.903 263.68 133.303 261.12C135.703 258.56 137.463 256.56 138.583 255.12C138.983 254.56 139.263 254.16 139.423 253.92C139.583 253.6 139.663 253.4 139.663 253.32C139.663 253.4 139.103 253.44 137.983 253.44C136.863 253.44 135.863 253.44 134.983 253.44C132.103 253.44 128.583 253.68 124.423 254.16C120.343 254.56 115.943 255.2 111.223 256.08C106.503 256.96 101.783 258.16 97.063 259.68L93.463 240.36C101.703 238.76 109.543 237.56 116.983 236.76C124.503 235.88 131.583 235.44 138.223 235.44C140.783 235.44 143.503 235.52 146.383 235.68C149.343 235.84 152.143 236.32 154.783 237.12C157.423 237.84 159.583 239.08 161.263 240.84C162.943 242.52 163.783 244.88 163.783 247.92C163.783 250.08 162.863 252.76 161.023 255.96C159.263 259.08 156.743 262.56 153.463 266.4C150.263 270.16 146.503 274.12 142.183 278.28C137.943 282.44 133.343 286.6 128.383 290.76C132.783 290.52 137.143 290.4 141.463 290.4C147.623 290.4 153.063 290.52 157.783 290.76C162.503 291 165.623 291.32 167.143 291.72L167.263 310.44C165.023 310.28 161.423 310.12 156.463 309.96C151.503 309.88 146.023 309.84 140.023 309.84C134.423 309.84 128.703 309.88 122.863 309.96C117.103 310.12 111.783 310.28 106.903 310.44C102.103 310.68 98.343 310.96 95.623 311.28Z" fill="#417505"/>
<path d="M39.96 310.68C33.88 310.68 28.4 310.24 23.52 309.36C18.72 308.56 14.64 306.96 11.28 304.56C7.92 302.24 5.36 298.8 3.6 294.24C1.84 289.68 0.960001 283.72 0.960001 276.36C0.960001 271 1.24 265.44 1.8 259.68C2.36 253.92 3.04 248.36 3.84 243C4.72 237.56 5.56 232.72 6.36 228.48C4.76 228.72 3.4 228.96 2.28 229.2L0 210.12C3.92 209.4 8.44 208.8 13.56 208.32C18.76 207.76 24.24 207.28 30 206.88C35.84 206.48 41.64 206.2 47.4 206.04C53.16 205.8 58.56 205.68 63.6 205.68C67.6 205.68 71.24 205.76 74.52 205.92C77.88 206 80.64 206.16 82.8 206.4L81.84 226.44C79.68 226.04 76.76 225.76 73.08 225.6C69.4 225.36 65.28 225.24 60.72 225.24C55.36 225.24 49.64 225.36 43.56 225.6C37.48 225.84 31.68 226.12 26.16 226.44C25.52 229.8 24.96 233.24 24.48 236.76C24 240.28 23.56 243.76 23.16 247.2C27.8 246.56 32.88 246.08 38.4 245.76C44 245.36 49.56 245.08 55.08 244.92C60.6 244.68 65.56 244.56 69.96 244.56C72.52 244.56 74.8 244.6 76.8 244.68C78.8 244.68 80.44 244.76 81.72 244.92L81.24 264.6C80.2 264.52 78.76 264.48 76.92 264.48C75.16 264.4 73.08 264.36 70.68 264.36C67.24 264.36 63.4 264.44 59.16 264.6C54.92 264.68 50.52 264.84 45.96 265.08C41.48 265.24 37.12 265.48 32.88 265.8C28.64 266.04 24.8 266.36 21.36 266.76C21.04 271.24 20.88 274.84 20.88 277.56C20.88 281.48 21.4 284.36 22.44 286.2C23.48 288.04 25.2 289.24 27.6 289.8C30.08 290.28 33.32 290.52 37.32 290.52C44.44 290.52 52.08 289.92 60.24 288.72C68.48 287.52 76.6 285.64 84.6 283.08L85.92 303.96C76.32 306.6 67.6 308.36 59.76 309.24C52 310.2 45.4 310.68 39.96 310.68Z" fill="#417505"/>
<path d="M429.23 395.865V368.57H433.234V372.721H433.527C434.032 371.37 434.935 370.279 436.237 369.449C437.556 368.603 439.029 368.18 440.656 368.18C440.965 368.18 441.348 368.188 441.804 368.204C442.259 368.204 442.609 368.212 442.854 368.229V372.477C442.707 372.444 442.382 372.395 441.877 372.33C441.372 372.265 440.835 372.232 440.266 372.232C438.947 372.232 437.767 372.509 436.726 373.062C435.684 373.616 434.862 374.373 434.26 375.333C433.674 376.293 433.381 377.392 433.381 378.629V395.865H429.23Z" fill="#D41C32"/>
<path d="M413.996 396.451C411.376 396.451 409.105 395.865 407.185 394.693C405.28 393.521 403.815 391.886 402.79 389.786C401.765 387.67 401.252 385.221 401.252 382.438C401.252 379.638 401.757 377.172 402.766 375.04C403.775 372.908 405.191 371.24 407.014 370.035C408.853 368.831 411.001 368.229 413.459 368.229C414.875 368.229 416.283 368.465 417.683 368.937C419.082 369.409 420.352 370.174 421.491 371.231C422.647 372.289 423.566 373.689 424.25 375.431C424.934 377.172 425.275 379.312 425.275 381.852V383.658H404.23V380.045H423.005L421.076 381.412C421.076 379.589 420.791 377.97 420.222 376.554C419.652 375.138 418.798 374.023 417.658 373.209C416.535 372.395 415.135 371.988 413.459 371.988C411.783 371.988 410.342 372.403 409.138 373.233C407.95 374.047 407.038 375.113 406.403 376.432C405.769 377.75 405.451 379.166 405.451 380.68V383.072C405.451 385.139 405.809 386.889 406.525 388.321C407.242 389.754 408.243 390.844 409.528 391.593C410.814 392.325 412.303 392.691 413.996 392.691C415.087 392.691 416.079 392.537 416.975 392.228C417.87 391.902 418.643 391.422 419.294 390.787C419.945 390.136 420.441 389.339 420.783 388.395L424.836 389.566C424.413 390.934 423.697 392.138 422.688 393.18C421.695 394.205 420.458 395.011 418.977 395.597C417.495 396.166 415.835 396.451 413.996 396.451Z" fill="#D41C32"/>
<path d="M398.859 368.57V372.135H384.748V368.57H398.859ZM388.85 362.076H393V388.053C393 389.469 393.293 390.51 393.879 391.178C394.465 391.829 395.393 392.154 396.662 392.154C396.939 392.154 397.224 392.138 397.517 392.105C397.826 392.073 398.16 392.024 398.518 391.959L399.396 395.719C399.006 395.865 398.526 395.979 397.956 396.061C397.403 396.158 396.841 396.207 396.271 396.207C394.074 396.207 392.284 395.556 390.9 394.254C389.533 392.952 388.85 391.259 388.85 389.176V362.076Z" fill="#D41C32"/>
<path d="M369.074 395.865V368.57H373.078V372.721H373.371C373.876 371.37 374.779 370.279 376.081 369.449C377.399 368.603 378.872 368.18 380.5 368.18C380.809 368.18 381.192 368.188 381.647 368.204C382.103 368.204 382.453 368.212 382.697 368.229V372.477C382.551 372.444 382.225 372.395 381.721 372.33C381.216 372.265 380.679 372.232 380.109 372.232C378.791 372.232 377.611 372.509 376.569 373.062C375.528 373.616 374.706 374.373 374.104 375.333C373.518 376.293 373.225 377.392 373.225 378.629V395.865H369.074Z" fill="#D41C32"/>
<path d="M351.203 396.5C349.478 396.5 347.907 396.174 346.491 395.523C345.075 394.856 343.952 393.896 343.122 392.643C342.292 391.389 341.877 389.876 341.877 388.102C341.877 386.539 342.186 385.278 342.805 384.317C343.423 383.341 344.245 382.576 345.271 382.022C346.312 381.453 347.451 381.03 348.688 380.753C349.942 380.476 351.203 380.257 352.473 380.094C354.133 379.882 355.476 379.719 356.501 379.605C357.543 379.492 358.299 379.296 358.771 379.02C359.26 378.743 359.504 378.271 359.504 377.604V377.457C359.504 375.715 359.024 374.365 358.063 373.404C357.119 372.428 355.679 371.939 353.742 371.939C351.757 371.939 350.194 372.379 349.055 373.258C347.915 374.12 347.118 375.048 346.662 376.041L342.658 374.625C343.374 372.965 344.326 371.671 345.515 370.743C346.719 369.815 348.021 369.164 349.421 368.79C350.837 368.416 352.229 368.229 353.596 368.229C354.475 368.229 355.484 368.334 356.623 368.546C357.762 368.741 358.869 369.164 359.943 369.815C361.034 370.45 361.929 371.419 362.629 372.721C363.345 374.007 363.703 375.732 363.703 377.896V395.865H359.504V392.154H359.309C359.032 392.74 358.56 393.375 357.893 394.059C357.225 394.726 356.338 395.304 355.231 395.792C354.141 396.264 352.798 396.5 351.203 396.5ZM351.838 392.74C353.498 392.74 354.898 392.415 356.037 391.764C357.176 391.113 358.039 390.274 358.625 389.249C359.211 388.207 359.504 387.125 359.504 386.002V382.145C359.325 382.356 358.934 382.551 358.332 382.73C357.746 382.893 357.062 383.04 356.281 383.17C355.516 383.3 354.768 383.414 354.035 383.512C353.303 383.593 352.717 383.658 352.277 383.707C351.187 383.854 350.17 384.09 349.226 384.415C348.282 384.724 347.517 385.188 346.931 385.807C346.361 386.425 346.076 387.271 346.076 388.346C346.076 389.794 346.613 390.893 347.688 391.642C348.778 392.374 350.161 392.74 351.838 392.74Z" fill="#D41C32"/>
<path d="M302.033 395.865V368.57H306.037V372.867H306.428C306.997 371.402 307.917 370.263 309.187 369.449C310.456 368.635 311.978 368.229 313.752 368.229C315.542 368.229 317.032 368.635 318.22 369.449C319.424 370.263 320.36 371.402 321.027 372.867H321.32C322.036 371.451 323.086 370.328 324.47 369.498C325.869 368.652 327.538 368.229 329.475 368.229C331.916 368.229 333.918 368.993 335.48 370.523C337.043 372.037 337.824 374.397 337.824 377.604V395.865H333.625V377.604C333.625 375.585 333.072 374.145 331.965 373.282C330.858 372.42 329.556 371.988 328.059 371.988C326.154 371.988 324.673 372.574 323.615 373.746C322.574 374.902 322.053 376.35 322.053 378.092V395.865H317.756V377.164C317.756 375.618 317.259 374.373 316.267 373.429C315.274 372.468 313.98 371.988 312.385 371.988C311.294 371.988 310.277 372.281 309.333 372.867C308.389 373.453 307.624 374.259 307.038 375.284C306.468 376.31 306.184 377.49 306.184 378.824V395.865H302.033Z" fill="#D41C32"/>
<path d="M284.553 396.5C281.949 396.5 279.694 396.085 277.79 395.255C275.886 394.409 274.388 393.237 273.298 391.739C272.224 390.226 271.613 388.476 271.467 386.49H276.008C276.138 387.857 276.602 388.989 277.399 389.884C278.213 390.779 279.247 391.446 280.5 391.886C281.753 392.325 283.104 392.545 284.553 392.545C286.229 392.545 287.735 392.268 289.069 391.715C290.42 391.161 291.486 390.388 292.268 389.396C293.049 388.403 293.439 387.239 293.439 385.904C293.439 384.7 293.098 383.723 292.414 382.975C291.73 382.226 290.835 381.616 289.729 381.144C288.638 380.672 287.45 380.257 286.164 379.898L281.721 378.629C278.872 377.815 276.618 376.651 274.958 375.138C273.314 373.608 272.492 371.614 272.492 369.156C272.492 367.122 273.037 365.348 274.128 363.834C275.235 362.304 276.724 361.116 278.596 360.27C280.484 359.423 282.583 359 284.895 359C287.238 359 289.322 359.423 291.145 360.27C292.967 361.1 294.416 362.239 295.49 363.688C296.564 365.12 297.134 366.747 297.199 368.57H292.902C292.691 366.78 291.828 365.388 290.314 364.396C288.817 363.403 286.962 362.906 284.748 362.906C283.153 362.906 281.753 363.167 280.549 363.688C279.344 364.208 278.409 364.924 277.741 365.836C277.074 366.747 276.74 367.789 276.74 368.961C276.74 370.247 277.139 371.288 277.937 372.086C278.734 372.867 279.678 373.478 280.769 373.917C281.875 374.356 282.876 374.706 283.771 374.967L287.434 375.992C288.378 376.253 289.427 376.603 290.583 377.042C291.755 377.481 292.878 378.076 293.952 378.824C295.043 379.573 295.938 380.533 296.638 381.705C297.338 382.861 297.688 384.293 297.688 386.002C297.688 387.955 297.175 389.729 296.149 391.324C295.124 392.903 293.635 394.164 291.682 395.108C289.729 396.036 287.352 396.5 284.553 396.5Z" fill="#D41C32"/>
<path d="M228.645 395.865L220.344 368.57H224.738L230.646 389.469H230.939L236.75 368.57H241.242L246.955 389.42H247.248L253.156 368.57H257.551L249.25 395.865H245.148L239.143 374.918H238.752L232.746 395.865H228.645Z" fill="#D41C32"/>
<path d="M206.965 396.451C204.507 396.451 202.351 395.865 200.495 394.693C198.64 393.521 197.191 391.878 196.149 389.762C195.124 387.646 194.611 385.188 194.611 382.389C194.611 379.54 195.124 377.058 196.149 374.942C197.191 372.81 198.64 371.158 200.495 369.986C202.351 368.814 204.507 368.229 206.965 368.229C209.439 368.229 211.604 368.814 213.459 369.986C215.314 371.158 216.763 372.81 217.805 374.942C218.846 377.058 219.367 379.54 219.367 382.389C219.367 385.188 218.846 387.646 217.805 389.762C216.763 391.878 215.314 393.521 213.459 394.693C211.604 395.865 209.439 396.451 206.965 396.451ZM206.965 392.691C208.853 392.691 210.399 392.211 211.604 391.251C212.808 390.291 213.703 389.029 214.289 387.467C214.875 385.888 215.168 384.195 215.168 382.389C215.168 380.549 214.875 378.84 214.289 377.262C213.703 375.683 212.808 374.413 211.604 373.453C210.399 372.477 208.853 371.988 206.965 371.988C205.109 371.988 203.579 372.477 202.375 373.453C201.171 374.413 200.275 375.683 199.689 377.262C199.104 378.84 198.811 380.549 198.811 382.389C198.811 384.195 199.104 385.888 199.689 387.467C200.275 389.029 201.171 390.291 202.375 391.251C203.579 392.211 205.109 392.691 206.965 392.691Z" fill="#D41C32"/>
<path d="M180.5 395.865V368.57H184.504V372.721H184.797C185.301 371.37 186.205 370.279 187.507 369.449C188.825 368.603 190.298 368.18 191.926 368.18C192.235 368.18 192.618 368.188 193.073 368.204C193.529 368.204 193.879 368.212 194.123 368.229V372.477C193.977 372.444 193.651 372.395 193.146 372.33C192.642 372.265 192.105 372.232 191.535 372.232C190.217 372.232 189.037 372.509 187.995 373.062C186.953 373.616 186.132 374.373 185.529 375.333C184.943 376.293 184.65 377.392 184.65 378.629V395.865H180.5Z" fill="#D41C32"/>
<path d="M161.018 396.354C157.795 396.354 154.963 395.597 152.521 394.083C150.096 392.569 148.2 390.421 146.833 387.638C145.482 384.838 144.807 381.526 144.807 377.701C144.807 373.86 145.482 370.54 146.833 367.74C148.2 364.941 150.08 362.784 152.473 361.271C154.865 359.757 157.616 359 160.725 359C162.645 359 164.436 359.285 166.096 359.854C167.756 360.424 169.237 361.238 170.539 362.296C171.841 363.354 172.924 364.607 173.786 366.056C174.665 367.504 175.275 369.107 175.617 370.865H171.076C170.686 369.661 170.173 368.587 169.538 367.643C168.92 366.682 168.171 365.868 167.292 365.201C166.413 364.518 165.428 363.997 164.338 363.639C163.247 363.281 162.043 363.102 160.725 363.102C158.576 363.102 156.615 363.663 154.841 364.786C153.083 365.893 151.675 367.537 150.617 369.718C149.576 371.882 149.055 374.544 149.055 377.701C149.055 380.842 149.584 383.495 150.642 385.66C151.7 387.825 153.132 389.469 154.938 390.592C156.745 391.699 158.771 392.252 161.018 392.252C163.101 392.252 164.932 391.804 166.511 390.909C168.09 390.014 169.326 388.753 170.222 387.125C171.117 385.481 171.564 383.544 171.564 381.314L172.932 381.607H161.994V377.701H175.861V381.607C175.861 384.602 175.227 387.206 173.957 389.42C172.688 391.617 170.93 393.326 168.684 394.547C166.454 395.751 163.898 396.354 161.018 396.354Z" fill="#D41C32"/>
<path fill-rule="evenodd" clip-rule="evenodd" d="M135 379L0 379L0 377L135 377V379Z" fill="#D41C32"/>
<path fill-rule="evenodd" clip-rule="evenodd" d="M585 379H452V377H585V379Z" fill="#D41C32"/>
</svg>
