<svg width="743" height="197" viewBox="0 0 743 197" fill="none" xmlns="http://www.w3.org/2000/svg">
<path fill-rule="evenodd" clip-rule="evenodd" d="M68.07 24.2455C59.99 16.1637 59.9906 8.08184 68.07 0C76.1536 8.08184 76.1535 16.1637 68.07 24.2455ZM64.4059 137.259L55.1683 171.639C54.346 174.7 53.9295 177.855 53.9295 181.024V183.056C53.9295 190.495 59.9601 196.526 67.3992 196.526C74.8383 196.526 80.8689 190.495 80.8689 183.056V180.165C80.8689 177.562 80.6027 174.966 80.0744 172.417L72.7871 137.259H64.4059ZM63.2218 134.809C27.8459 141.571 6.7737 127.264 0.00195312 91.8909C35.3844 85.119 56.4575 99.4253 63.2218 134.809ZM136.611 91.3496C101.235 84.5873 80.1628 98.895 73.3911 134.268C108.774 141.04 129.847 126.733 136.611 91.3496ZM64.1887 91.7092C36.0818 97.082 19.3395 85.7143 13.9592 57.6099C42.0713 52.2295 58.8143 63.5962 64.1887 91.7092ZM122.498 57.1797C94.3907 51.8069 77.6484 63.1747 72.2681 91.279C100.38 96.6594 117.123 85.2927 122.498 57.1797ZM66.5391 59.1274C47.6188 62.7441 36.3486 55.0919 32.7269 36.1733C51.6506 32.5514 62.9213 40.203 66.5391 59.1274ZM105.79 35.8831C86.8696 32.2664 75.5995 39.9187 71.9777 58.8372C90.9015 62.4591 102.172 54.8076 105.79 35.8831ZM67.7519 36.8966C57.2731 38.8997 51.0313 34.6617 49.0254 24.1838C59.5061 22.1779 65.7482 26.4156 67.7519 36.8966ZM89.4939 24.0233C79.0152 22.0202 72.7734 26.2583 70.7675 36.7361C81.2482 38.7421 87.4903 34.5044 89.4939 24.0233Z" fill="#F5A623"/>
<path d="M741.465 153.062H720.879V74.514H741.465V153.062ZM733.727 44C736.16 44 738.253 44.876 740.005 46.628C741.757 48.38 742.633 50.4727 742.633 52.906V59.768C742.633 62.2013 741.757 64.294 740.005 66.046C738.253 67.7007 736.16 68.528 733.727 68.528H728.617C726.184 68.528 724.091 67.7007 722.339 66.046C720.587 64.294 719.711 62.2013 719.711 59.768V52.906C719.711 50.4727 720.587 48.38 722.339 46.628C724.091 44.876 726.184 44 728.617 44H733.727Z" fill="#417505"/>
<path d="M689.969 132.476H709.679V153.062H689.823C682.621 153.062 676.391 150.483 671.135 145.324C665.977 140.165 663.397 133.936 663.397 126.636V95.1H653.615V74.514H663.397V44H683.983V74.514H706.905V95.1H683.983V126.636C683.983 128.193 684.567 129.556 685.735 130.724C686.903 131.892 688.315 132.476 689.969 132.476Z" fill="#417505"/>
<path d="M645.844 104.882V123.424H598.832C598.929 125.176 599.465 126.831 600.438 128.388C601.411 129.848 602.677 131.016 604.234 131.892C605.791 132.768 607.495 133.206 609.344 133.206H641.756V153.792H609.344C603.699 153.792 598.491 152.43 593.722 149.704C588.953 146.882 585.157 143.086 582.334 138.316C579.609 133.547 578.246 128.34 578.246 122.694V104.882C578.246 96.3169 581.263 89.0169 587.298 82.9822C593.43 76.8502 600.779 73.7842 609.344 73.7842H614.746C623.311 73.7842 630.611 76.8502 636.646 82.9822C642.778 89.0169 645.844 96.3169 645.844 104.882ZM598.978 102.838H625.112C624.723 101.281 624.041 99.8695 623.068 98.6042C622.095 97.2415 620.878 96.2195 619.418 95.5382C617.958 94.7595 616.401 94.3702 614.746 94.3702H609.344C606.813 94.3702 604.575 95.1975 602.628 96.8522C600.681 98.4095 599.465 100.405 598.978 102.838Z" fill="#417505"/>
<path d="M535.826 74.514C544.489 74.514 551.838 77.58 557.872 83.712C564.004 89.844 567.07 97.1927 567.07 105.758V153.062H546.484V105.758C546.484 102.838 545.462 100.356 543.418 98.312C541.374 96.1707 538.844 95.1 535.826 95.1H519.328V153.062H498.742V44H519.328V74.514H535.826Z" fill="#417505"/>
<path d="M490.089 44L444.245 98.458L491.549 153.062H462.495L425.703 110.576V153.062H403.803V44H425.703V86.34L461.473 44H490.089Z" fill="#417505"/>
<path d="M367.803 74.5142H388.389V160.946C388.389 168.733 385.615 175.352 380.067 180.802C374.616 186.35 368.046 189.124 360.357 189.124H324.149V168.538H360.357C362.401 168.538 364.153 167.808 365.613 166.348C367.073 164.888 367.803 163.088 367.803 160.946V153.062H351.305C342.642 153.062 335.245 150.045 329.113 144.01C323.078 137.878 320.061 130.481 320.061 121.818V74.5142H340.647V121.818C340.647 124.738 341.669 127.269 343.713 129.41C345.854 131.454 348.385 132.476 351.305 132.476H367.803V74.5142Z" fill="#417505"/>
<path d="M308.658 90.1362C308.658 93.5428 307.879 96.7548 306.322 99.7722C304.862 102.789 302.769 105.32 300.044 107.364L266.756 132.476H308.658V153.062H240.33V137.44C240.33 134.033 241.06 130.821 242.52 127.804C244.077 124.787 246.219 122.256 248.944 120.212L282.232 95.1002H242.52V74.5142H308.658V90.1362Z" fill="#417505"/>
<path d="M178.9 108.824V131.162H230.73V153.062H157V44H230.584V65.9H178.9V86.924H223.868V108.824H178.9Z" fill="#417505"/>
</svg>
